<svg version="1.1" viewBox="0.0 0.0 552.6587926509186 368.2755905511811" fill="none" stroke="none" stroke-linecap="square" stroke-miterlimit="10" xmlns:xlink="http://www.w3.org/1999/xlink" xmlns="http://www.w3.org/2000/svg"><clipPath id="p.0"><path d="m0 0l552.6588 0l0 368.2756l-552.6588 0l0 -368.2756z" clip-rule="nonzero"/></clipPath><g clip-path="url(#p.0)"><path fill="#131416" d="m0 0l552.6588 0l0 368.2756l-552.6588 0z" fill-rule="evenodd"/><path fill="#000000" fill-opacity="0.0" d="m73.67278 80.240486l-72.69292 0.9448776" fill-rule="evenodd"/><path stroke="#ffffff" stroke-width="3.0" stroke-linejoin="round" stroke-linecap="butt" d="m63.392395 80.374115l-62.41253 0.8112488" fill-rule="evenodd"/><path fill="#ffffff" stroke="#ffffff" stroke-width="3.0" stroke-linecap="butt" d="m63.39239 80.374115l-3.3296165 3.4173126l9.22467 -3.4939423l-9.31237 -3.2529907z" fill-rule="evenodd"/><path fill="#000000" fill-opacity="0.0" d="m340.51083 15.04462l113.13385 65.41733l-113.13385 65.41733z" fill-rule="evenodd"/><path stroke="#ffffff" stroke-width="1.0" stroke-linejoin="round" stroke-linecap="butt" d="m340.51083 15.04462l113.13385 65.41733l-113.13385 65.41733z" fill-rule="evenodd"/><path fill="#000000" fill-opacity="0.0" d="m354.25098 60.698162l48.944885 0l0 39.52756l-48.944885 0z" fill-rule="evenodd"/><path fill="#bf9000" d="m368.28223 82.024414l0 3.421875q0 1.0 0.125 1.265625q0.125 0.265625 0.4375 0.421875q0.3125 0.140625 1.15625 0.140625l0 0.34375l-6.28125 0l0 -0.34375q0.859375 0 1.15625 -0.15625q0.3125 -0.15625 0.4375 -0.40625q0.125 -0.265625 0.125 -1.265625l0 -8.015625q0 -1.0 -0.125 -1.25q-0.125 -0.265625 -0.4375 -0.421875q-0.296875 -0.15625 -1.15625 -0.15625l0 -0.34375l5.390625 0q2.65625 0 3.8125 0.953125q1.15625 0.953125 1.15625 2.375q0 1.203125 -0.75 2.0625q-0.734375 0.84375 -2.046875 1.15625q-0.890625 0.21875 -3.0 0.21875zm0 -6.046875l0 5.34375q0.3125 0.015625 0.46875 0.015625q1.109375 0 1.703125 -0.65625q0.609375 -0.671875 0.609375 -2.046875q0 -1.375 -0.609375 -2.015625q-0.59375 -0.640625 -1.796875 -0.640625l-0.375 0zm12.744934 8.125l-4.375 0l-0.515625 1.203125q-0.25 0.59375 -0.25 0.984375q0 0.53125 0.421875 0.765625q0.234375 0.15625 1.203125 0.21875l0 0.34375l-4.109375 0l0 -0.34375q0.671875 -0.09375 1.09375 -0.546875q0.4375 -0.453125 1.0625 -1.859375l4.421875 -9.859375l0.171875 0l4.453125 10.125q0.640625 1.453125 1.046875 1.8125q0.3125 0.296875 0.875 0.328125l0 0.34375l-5.984375 0l0 -0.34375l0.25 0q0.71875 0 1.015625 -0.1875q0.203125 -0.15625 0.203125 -0.421875q0 -0.171875 -0.0625 -0.34375q-0.015625 -0.078125 -0.265625 -0.6875l-0.65625 -1.53125zm-0.3125 -0.671875l-1.84375 -4.25l-1.890625 4.25l3.734375 0z" fill-rule="nonzero"/><path fill="#000000" fill-opacity="0.0" d="m479.5807 152.47115l0 0c0 -5.8128815 4.7122803 -10.5251465 10.5251465 -10.5251465l44.493042 0l0 0c2.7914429 0 5.468506 1.1088867 7.442383 3.0827484c1.9738159 1.9738464 3.0827637 4.650955 3.0827637 7.442398l0 42.09932c0 5.812866 -4.7122803 10.525131 -10.5251465 10.525131l-44.493042 0c-5.812866 0 -10.5251465 -4.712265 -10.5251465 -10.525131z" fill-rule="evenodd"/><path stroke="#ffffff" stroke-width="1.0" stroke-linejoin="round" stroke-linecap="butt" d="m479.5807 152.47115l0 0c0 -5.8128815 4.7122803 -10.5251465 10.5251465 -10.5251465l44.493042 0l0 0c2.7914429 0 5.468506 1.1088867 7.442383 3.0827484c1.9738159 1.9738464 3.0827637 4.650955 3.0827637 7.442398l0 42.09932c0 5.812866 -4.7122803 10.525131 -10.5251465 10.525131l-44.493042 0c-5.812866 0 -10.5251465 -4.712265 -10.5251465 -10.525131z" fill-rule="evenodd"/><path fill="#000000" fill-opacity="0.0" d="m496.34647 137.12769l25.417328 0l0 33.88977l-25.417328 0z" fill-rule="evenodd"/><path fill="#00ff00" d="m511.4246 151.43831l0 10.109375q0 1.140625 0.09375 1.453125q0.109375 0.3125 0.421875 0.515625q0.32815552 0.1875 1.0156555 0.1875l0.28125 0l0 0.34375l-6.5000305 0l0 -0.34375l0.328125 0q0.796875 0 1.125 -0.171875q0.34375 -0.1875 0.453125 -0.5q0.125 -0.328125 0.125 -1.484375l0 -6.40625q0 -0.859375 -0.078125 -1.0625q-0.078125 -0.21875 -0.3125 -0.375q-0.21875 -0.15625 -0.515625 -0.15625q-0.453125 0 -1.125 0.296875l-0.15625 -0.328125l4.546875 -2.078125l0.296875 0z" fill-rule="nonzero"/><path fill="#000000" fill-opacity="0.0" d="m493.52295 164.42258l25.417297 0l0 33.88977l-25.417297 0z" fill-rule="evenodd"/><path fill="#00ff00" d="m515.39795 178.70195l0 4.359375l-0.34375 0q-0.609375 -1.78125 -1.828125 -2.703125q-1.21875 -0.9375 -2.671875 -0.9375q-1.375 0 -2.296875 0.78125q-0.921875 0.78125 -1.3125 2.171875q-0.375 1.390625 -0.375 2.859375q0 1.765625 0.40625 3.109375q0.421875 1.34375 1.359375 1.96875q0.9375 0.625 2.21875 0.625q0.453125 0 0.921875 -0.09375q0.46875 -0.09375 0.953125 -0.28125l0 -2.5625q0 -0.734375 -0.109375 -0.9375q-0.09375 -0.21875 -0.40625 -0.390625q-0.3125 -0.171875 -0.75 -0.171875l-0.328125 0l0 -0.34375l6.0 0l0 0.34375q-0.671875 0.046875 -0.953125 0.1875q-0.265625 0.140625 -0.40625 0.46875q-0.078125 0.171875 -0.078125 0.84375l0 2.5625q-1.1875 0.53125 -2.46875 0.796875q-1.28125 0.28125 -2.65625 0.28125q-1.75 0 -2.921875 -0.484375q-1.15625 -0.484375 -2.046875 -1.25q-0.890625 -0.78125 -1.390625 -1.765625q-0.640625 -1.25 -0.640625 -2.8125q0 -2.78125 1.953125 -4.703125q1.96875 -1.921875 4.9375 -1.921875q0.921875 0 1.65625 0.140625q0.40625 0.078125 1.296875 0.421875q0.90625 0.34375 1.0625 0.34375q0.265625 0 0.484375 -0.1875q0.21875 -0.1875 0.390625 -0.71875l0.34375 0z" fill-rule="nonzero"/><path fill="#000000" fill-opacity="0.0" d="m491.6406 143.72334l41.417328 0l0 33.889755l-41.417328 0z" fill-rule="evenodd"/><path fill="#00ff00" d="m500.46872 173.47147l9.671875 0l0 1.203125l-9.671875 0l0 -1.203125zm9.328125 0l9.6719055 0l0 1.203125l-9.6719055 0l0 -1.203125z" fill-rule="nonzero"/><path fill="#000000" fill-opacity="0.0" d="m512.35236 205.0956l0 64.69292l-60.472443 0" fill-rule="evenodd"/><path stroke="#ffffff" stroke-width="3.0" stroke-linejoin="round" stroke-linecap="butt" d="m512.35236 205.0956l0 64.69292l-47.32901 0" fill-rule="evenodd"/><path fill="#ffffff" stroke="#ffffff" stroke-width="3.0" stroke-linecap="butt" d="m465.02332 269.7885l5.011627 -5.011627l-13.769318 5.011627l13.769318 5.011627z" fill-rule="evenodd"/><path fill="#000000" fill-opacity="0.0" d="m421.42557 179.53543l-65.19687 183.84253" fill-rule="evenodd"/><path stroke="#ffffff" stroke-width="3.0" stroke-linejoin="round" stroke-linecap="butt" d="m421.42557 179.53543l-60.803802 171.45502" fill-rule="evenodd"/><path fill="#ffffff" stroke="#ffffff" stroke-width="3.0" stroke-linecap="butt" d="m360.62173 350.99045l-3.0483093 -6.398468l0.121154785 14.652496l9.325623 -11.302338z" fill-rule="evenodd"/><path fill="#000000" fill-opacity="0.0" d="m291.36542 180.00728l130.89764 -0.91337585" fill-rule="evenodd"/><path stroke="#ffffff" stroke-width="3.0" stroke-linejoin="round" stroke-linecap="butt" d="m291.36542 180.00728l130.89764 -0.91337585" fill-rule="evenodd"/><path fill="#000000" d="m305.53186 250.78398l0 0c0 -5.244644 4.2516174 -9.496262 9.496246 -9.496262l127.36969 0c2.5185547 0 4.9339905 1.0005035 6.7148743 2.7814026c1.7808838 1.7808838 2.781372 4.196289 2.781372 6.714859l0 37.98387c0 5.244629 -4.2516174 9.496246 -9.496246 9.496246l-127.36969 0l0 0c-5.244629 0 -9.496246 -4.2516174 -9.496246 -9.496246z" fill-rule="evenodd"/><path stroke="#ffffff" stroke-width="1.0" stroke-linejoin="round" stroke-linecap="butt" d="m305.53186 250.78398l0 0c0 -5.244644 4.2516174 -9.496262 9.496246 -9.496262l127.36969 0c2.5185547 0 4.9339905 1.0005035 6.7148743 2.7814026c1.7808838 1.7808838 2.781372 4.196289 2.781372 6.714859l0 37.98387c0 5.244629 -4.2516174 9.496246 -9.496246 9.496246l-127.36969 0l0 0c-5.244629 0 -9.496246 -4.2516174 -9.496246 -9.496246z" fill-rule="evenodd"/><path fill="#00bfff" d="m331.9385 271.10217l0 3.421875q0 1.0 0.125 1.265625q0.125 0.265625 0.4375 0.421875q0.3125 0.140625 1.15625 0.140625l0 0.34375l-6.28125 0l0 -0.34375q0.859375 0 1.15625 -0.15625q0.3125 -0.15625 0.4375 -0.40625q0.125 -0.265625 0.125 -1.265625l0 -8.015625q0 -1.0 -0.125 -1.25q-0.125 -0.265625 -0.4375 -0.421875q-0.296875 -0.15625 -1.15625 -0.15625l0 -0.34375l5.390625 0q2.65625 0 3.8125 0.953125q1.15625 0.953125 1.15625 2.375q0 1.203125 -0.75 2.0625q-0.734375 0.84375 -2.046875 1.15625q-0.890625 0.21875 -3.0 0.21875zm0 -6.046875l0 5.34375q0.3125 0.015625 0.46875 0.015625q1.109375 0 1.703125 -0.65625q0.609375 -0.671875 0.609375 -2.046875q0 -1.375 -0.609375 -2.015625q-0.59375 -0.640625 -1.796875 -0.640625l-0.375 0zm11.005341 2.875q1.109375 0 2.0625 0.578125q0.96875 0.5625 1.453125 1.625q0.5 1.046875 0.5 2.3125q0 1.8125 -0.90625 3.03125q-1.125 1.46875 -3.078125 1.46875q-1.921875 0 -2.96875 -1.34375q-1.03125 -1.34375 -1.03125 -3.125q0 -1.828125 1.0625 -3.1875q1.0625 -1.359375 2.90625 -1.359375zm0.046875 0.640625q-0.46875 0 -0.8125 0.359375q-0.328125 0.34375 -0.4375 1.375q-0.09375 1.03125 -0.09375 2.875q0 0.96875 0.125 1.828125q0.109375 0.640625 0.4375 0.984375q0.328125 0.328125 0.734375 0.328125q0.421875 0 0.6875 -0.21875q0.359375 -0.3125 0.46875 -0.875q0.1875 -0.859375 0.1875 -3.5q0 -1.546875 -0.171875 -2.125q-0.171875 -0.578125 -0.515625 -0.84375q-0.234375 -0.1875 -0.609375 -0.1875zm10.65625 -0.625l0.140625 2.90625l-0.3125 0q-0.5625 -1.296875 -1.15625 -1.765625q-0.59375 -0.484375 -1.1875 -0.484375q-0.375 0 -0.640625 0.25q-0.265625 0.25 -0.265625 0.578125q0 0.25 0.1875 0.484375q0.28125 0.375 1.625 1.28125q1.34375 0.90625 1.765625 1.546875q0.421875 0.625 0.421875 1.40625q0 0.703125 -0.359375 1.390625q-0.34375 0.6875 -1.0 1.046875q-0.640625 0.359375 -1.421875 0.359375q-0.609375 0 -1.640625 -0.375q-0.265625 -0.109375 -0.375 -0.109375q-0.296875 0 -0.5 0.46875l-0.296875 0l-0.140625 -3.0625l0.3125 0q0.40625 1.203125 1.109375 1.8125q0.71875 0.59375 1.359375 0.59375q0.4375 0 0.71875 -0.265625q0.28125 -0.28125 0.28125 -0.65625q0 -0.4375 -0.28125 -0.75q-0.265625 -0.328125 -1.21875 -0.96875q-1.390625 -0.96875 -1.796875 -1.484375q-0.609375 -0.75 -0.609375 -1.640625q0 -0.984375 0.671875 -1.78125q0.6875 -0.796875 1.96875 -0.796875q0.703125 0 1.34375 0.328125q0.25 0.140625 0.40625 0.140625q0.15625 0 0.25 -0.0625q0.109375 -0.078125 0.328125 -0.390625l0.3125 0zm5.2602844 -2.890625l0 3.125l2.015625 0l0 0.90625l-2.015625 0l0 5.25q0 0.734375 0.0625 0.953125q0.0625 0.21875 0.234375 0.359375q0.171875 0.125 0.328125 0.125q0.59375 0 1.109375 -0.90625l0.28125 0.203125q-0.734375 1.75 -2.390625 1.75q-0.8125 0 -1.375 -0.453125q-0.5625 -0.453125 -0.71875 -1.015625q-0.09375 -0.3125 -0.09375 -1.671875l0 -4.59375l-1.109375 0l0 -0.328125q1.15625 -0.8125 1.953125 -1.703125q0.8125 -0.890625 1.40625 -2.0l0.3125 0zm11.103302 -0.71875l0 9.8125q0 0.984375 0.0625 1.171875q0.0625 0.296875 0.265625 0.453125q0.21875 0.140625 0.71875 0.171875l0 0.296875l-3.59375 0.703125l0 -1.34375q-0.640625 0.78125 -1.15625 1.0625q-0.5 0.28125 -1.140625 0.28125q-1.625 0 -2.578125 -1.453125q-0.765625 -1.1875 -0.765625 -2.90625q0 -1.375 0.46875 -2.453125q0.484375 -1.09375 1.296875 -1.640625q0.828125 -0.5625 1.78125 -0.5625q0.609375 0 1.078125 0.234375q0.484375 0.234375 1.015625 0.828125l0 -2.578125q0 -0.96875 -0.078125 -1.171875q-0.109375 -0.265625 -0.328125 -0.390625q-0.21875 -0.125 -0.828125 -0.125l0 -0.390625l3.78125 0zm-2.546875 5.78125q-0.671875 -1.296875 -1.65625 -1.296875q-0.328125 0 -0.546875 0.1875q-0.34375 0.28125 -0.5625 1.0q-0.203125 0.703125 -0.203125 2.171875q0 1.609375 0.234375 2.390625q0.234375 0.765625 0.640625 1.109375q0.21875 0.171875 0.578125 0.171875q0.796875 0 1.515625 -1.25l0 -4.484375zm6.688202 -6.0625q0.59375 0 1.0 0.421875q0.421875 0.40625 0.421875 0.984375q0 0.578125 -0.421875 1.0q-0.40625 0.40625 -1.0 0.40625q-0.578125 0 -0.984375 -0.40625q-0.40625 -0.421875 -0.40625 -1.0q0 -0.578125 0.40625 -0.984375q0.40625 -0.421875 0.984375 -0.421875zm1.28125 4.125l0 6.75q0 0.90625 0.203125 1.15625q0.21875 0.25 0.828125 0.28125l0 0.328125l-4.609375 0l0 -0.328125q0.578125 -0.015625 0.84375 -0.328125q0.1875 -0.203125 0.1875 -1.109375l0 -4.96875q0 -0.90625 -0.21875 -1.15625q-0.203125 -0.25 -0.8125 -0.296875l0 -0.328125l3.578125 0zm7.245819 -0.234375l0.140625 2.90625l-0.3125 0q-0.5625 -1.296875 -1.15625 -1.765625q-0.59375 -0.484375 -1.1875 -0.484375q-0.375 0 -0.640625 0.25q-0.265625 0.25 -0.265625 0.578125q0 0.25 0.1875 0.484375q0.28125 0.375 1.625 1.28125q1.34375 0.90625 1.765625 1.546875q0.421875 0.625 0.421875 1.40625q0 0.703125 -0.359375 1.390625q-0.34375 0.6875 -1.0 1.046875q-0.640625 0.359375 -1.421875 0.359375q-0.609375 0 -1.640625 -0.375q-0.265625 -0.109375 -0.375 -0.109375q-0.296875 0 -0.5 0.46875l-0.296875 0l-0.140625 -3.0625l0.3125 0q0.40625 1.203125 1.109375 1.8125q0.71875 0.59375 1.359375 0.59375q0.4375 0 0.71875 -0.265625q0.28125 -0.28125 0.28125 -0.65625q0 -0.4375 -0.28125 -0.75q-0.265625 -0.328125 -1.21875 -0.96875q-1.390625 -0.96875 -1.796875 -1.484375q-0.609375 -0.75 -0.609375 -1.640625q0 -0.984375 0.671875 -1.78125q0.6875 -0.796875 1.96875 -0.796875q0.703125 0 1.34375 0.328125q0.25 0.140625 0.40625 0.140625q0.15625 0 0.25 -0.0625q0.109375 -0.078125 0.328125 -0.390625l0.3125 0zm5.260254 -2.890625l0 3.125l2.015625 0l0 0.90625l-2.015625 0l0 5.25q0 0.734375 0.0625 0.953125q0.0625 0.21875 0.234375 0.359375q0.171875 0.125 0.328125 0.125q0.59375 0 1.109375 -0.90625l0.28125 0.203125q-0.734375 1.75 -2.390625 1.75q-0.8125 0 -1.375 -0.453125q-0.5625 -0.453125 -0.71875 -1.015625q-0.09375 -0.3125 -0.09375 -1.671875l0 -4.59375l-1.109375 0l0 -0.328125q1.15625 -0.8125 1.953125 -1.703125q0.8125 -0.890625 1.40625 -2.0l0.3125 0zm6.837677 2.875q1.109375 0 2.0625 0.578125q0.96875 0.5625 1.453125 1.625q0.5 1.046875 0.5 2.3125q0 1.8125 -0.90625 3.03125q-1.125 1.46875 -3.078125 1.46875q-1.921875 0 -2.96875 -1.34375q-1.03125 -1.34375 -1.03125 -3.125q0 -1.828125 1.0625 -3.1875q1.0625 -1.359375 2.90625 -1.359375zm0.046875 0.640625q-0.46875 0 -0.8125 0.359375q-0.328125 0.34375 -0.4375 1.375q-0.09375 1.03125 -0.09375 2.875q0 0.96875 0.125 1.828125q0.109375 0.640625 0.4375 0.984375q0.328125 0.328125 0.734375 0.328125q0.421875 0 0.6875 -0.21875q0.359375 -0.3125 0.46875 -0.875q0.1875 -0.859375 0.1875 -3.5q0 -1.546875 -0.171875 -2.125q-0.171875 -0.578125 -0.515625 -0.84375q-0.234375 -0.1875 -0.609375 -0.1875zm8.796875 -0.390625l0 1.921875q0.859375 -1.3125 1.484375 -1.734375q0.640625 -0.4375 1.234375 -0.4375q0.515625 0 0.8125 0.3125q0.3125 0.3125 0.3125 0.890625q0 0.609375 -0.296875 0.953125q-0.296875 0.328125 -0.71875 0.328125q-0.484375 0 -0.84375 -0.3125q-0.34375 -0.3125 -0.40625 -0.34375q-0.09375 -0.0625 -0.21875 -0.0625q-0.265625 0 -0.5 0.203125q-0.375 0.3125 -0.5625 0.890625q-0.296875 0.875 -0.296875 1.9375l0 1.96875l0.015625 0.5q0 0.53125 0.0625 0.671875q0.109375 0.25 0.3125 0.359375q0.21875 0.109375 0.734375 0.140625l0 0.328125l-4.59375 0l0 -0.328125q0.546875 -0.046875 0.734375 -0.296875q0.203125 -0.265625 0.203125 -1.375l0 -4.71875q0 -0.71875 -0.0625 -0.921875q-0.09375 -0.25 -0.265625 -0.375q-0.171875 -0.125 -0.609375 -0.171875l0 -0.328125l3.46875 0zm8.139923 -3.125l0 3.125l2.015625 0l0 0.90625l-2.015625 0l0 5.25q0 0.734375 0.0625 0.953125q0.0625 0.21875 0.234375 0.359375q0.171875 0.125 0.328125 0.125q0.59375 0 1.109375 -0.90625l0.28125 0.203125q-0.734375 1.75 -2.390625 1.75q-0.8125 0 -1.375 -0.453125q-0.5625 -0.453125 -0.71875 -1.015625q-0.09375 -0.3125 -0.09375 -1.671875l0 -4.59375l-1.109375 0l0 -0.328125q1.15625 -0.8125 1.953125 -1.703125q0.8125 -0.890625 1.40625 -2.0l0.3125 0zm10.040802 7.078125l-4.671875 0q0.078125 1.6875 0.90625 2.671875q0.625 0.765625 1.5 0.765625q0.546875 0 0.984375 -0.296875q0.453125 -0.3125 0.96875 -1.109375l0.3125 0.203125q-0.6875 1.40625 -1.53125 2.0q-0.84375 0.578125 -1.9375 0.578125q-1.890625 0 -2.875 -1.453125q-0.78125 -1.171875 -0.78125 -2.921875q0 -2.125 1.15625 -3.375q1.15625 -1.265625 2.703125 -1.265625q1.28125 0 2.234375 1.0625q0.953125 1.046875 1.03125 3.140625zm-2.234375 -0.609375q0 -1.46875 -0.171875 -2.015625q-0.15625 -0.546875 -0.484375 -0.828125q-0.203125 -0.171875 -0.515625 -0.171875q-0.46875 0 -0.78125 0.46875q-0.53125 0.8125 -0.53125 2.21875l0 0.328125l2.484375 0zm6.8273926 -3.34375l0 1.921875q0.859375 -1.3125 1.484375 -1.734375q0.640625 -0.4375 1.234375 -0.4375q0.515625 0 0.8125 0.3125q0.3125 0.3125 0.3125 0.890625q0 0.609375 -0.296875 0.953125q-0.296875 0.328125 -0.71875 0.328125q-0.484375 0 -0.84375 -0.3125q-0.34375 -0.3125 -0.40625 -0.34375q-0.09375 -0.0625 -0.21875 -0.0625q-0.265625 0 -0.5 0.203125q-0.375 0.3125 -0.5625 0.890625q-0.296875 0.875 -0.296875 1.9375l0 1.96875l0.015625 0.5q0 0.53125 0.0625 0.671875q0.109375 0.25 0.3125 0.359375q0.21875 0.109375 0.734375 0.140625l0 0.328125l-4.59375 0l0 -0.328125q0.546875 -0.046875 0.734375 -0.296875q0.203125 -0.265625 0.203125 -1.375l0 -4.71875q0 -0.71875 -0.0625 -0.921875q-0.09375 -0.25 -0.265625 -0.375q-0.171875 -0.125 -0.609375 -0.171875l0 -0.328125l3.46875 0z" fill-rule="nonzero"/><path fill="#000000" fill-opacity="0.0" d="m356.23022 363.37738l-242.77167 -0.47244263" fill-rule="evenodd"/><path stroke="#ffffff" stroke-width="3.0" stroke-linejoin="round" stroke-linecap="butt" stroke-dasharray="12.0,9.0" d="m356.23022 363.37738l-242.77167 -0.47244263" fill-rule="evenodd"/><path fill="#000000" fill-opacity="0.0" d="m114.63246 363.39108l-1.9527512 -218.01575" fill-rule="evenodd"/><path stroke="#ffffff" stroke-width="3.0" stroke-linejoin="round" stroke-linecap="butt" stroke-dasharray="12.0,9.0" d="m114.63246 363.39108l-1.9527512 -218.01575" fill-rule="evenodd"/><path fill="#000000" fill-opacity="0.0" d="m113.91202 143.56168l111.842514 -143.55905" fill-rule="evenodd"/><path stroke="#ffffff" stroke-width="3.0" stroke-linejoin="round" stroke-linecap="butt" stroke-dasharray="12.0,9.0" d="m113.91201 143.56168l103.764915 -133.19078" fill-rule="evenodd"/><path fill="#ffffff" stroke="#ffffff" stroke-width="3.0" stroke-linecap="butt" d="m217.67693 10.370897l0.8734436 7.03347l4.5088196 -13.942043l-12.415741 7.7820096z" fill-rule="evenodd"/><path fill="#000000" fill-opacity="0.0" d="m453.64468 80.461945l96.09451 -0.4409485" fill-rule="evenodd"/><path stroke="#ffffff" stroke-width="3.0" stroke-linejoin="round" stroke-linecap="butt" d="m453.64468 80.461945l82.95126 -0.38063812" fill-rule="evenodd"/><path fill="#ffffff" stroke="#ffffff" stroke-width="3.0" stroke-linecap="butt" d="m536.59595 80.08131l-4.9885864 5.034561l13.746155 -5.074745l-13.792175 -4.9483795z" fill-rule="evenodd"/><path fill="#000000" fill-opacity="0.0" d="m332.2171 146.82356l65.543335 0l0 38.582672l-65.543335 0z" fill-rule="evenodd"/><path fill="#ffffff" d="m349.06085 169.18106l-4.671875 0q0.078125 1.6875 0.90625 2.671875q0.625 0.765625 1.5 0.765625q0.546875 0 0.984375 -0.296875q0.453125 -0.3125 0.96875 -1.109375l0.3125 0.203125q-0.6875 1.40625 -1.53125 2.0q-0.84375 0.578125 -1.9375 0.578125q-1.890625 0 -2.875 -1.453125q-0.78125 -1.171875 -0.78125 -2.921875q0 -2.125 1.15625 -3.375q1.15625 -1.265625 2.703125 -1.265625q1.28125 0 2.234375 1.0625q0.953125 1.046875 1.03125 3.140625zm-2.234375 -0.609375q0 -1.46875 -0.171875 -2.015625q-0.15625 -0.546875 -0.484375 -0.828125q-0.203125 -0.171875 -0.515625 -0.171875q-0.46875 0 -0.78125 0.46875q-0.53125 0.8125 -0.53125 2.21875l0 0.328125l2.484375 0zm6.827423 -3.34375l0 1.921875q0.859375 -1.3125 1.484375 -1.734375q0.640625 -0.4375 1.234375 -0.4375q0.515625 0 0.8125 0.3125q0.3125 0.3125 0.3125 0.890625q0 0.609375 -0.296875 0.953125q-0.296875 0.328125 -0.71875 0.328125q-0.484375 0 -0.84375 -0.3125q-0.34375 -0.3125 -0.40625 -0.34375q-0.09375 -0.0625 -0.21875 -0.0625q-0.265625 0 -0.5 0.203125q-0.375 0.3125 -0.5625 0.890625q-0.296875 0.875 -0.296875 1.9375l0 1.96875l0.015625 0.5q0 0.53125 0.0625 0.671875q0.109375 0.25 0.3125 0.359375q0.21875 0.109375 0.734375 0.140625l0 0.328125l-4.59375 0l0 -0.328125q0.546875 -0.046875 0.734375 -0.296875q0.203125 -0.265625 0.203125 -1.375l0 -4.71875q0 -0.71875 -0.0625 -0.921875q-0.09375 -0.25 -0.265625 -0.375q-0.171875 -0.125 -0.609375 -0.171875l0 -0.328125l3.46875 0zm8.280518 0l0 1.921875q0.859375 -1.3125 1.484375 -1.734375q0.640625 -0.4375 1.234375 -0.4375q0.515625 0 0.8125 0.3125q0.3125 0.3125 0.3125 0.890625q0 0.609375 -0.296875 0.953125q-0.296875 0.328125 -0.71875 0.328125q-0.484375 0 -0.84375 -0.3125q-0.34375 -0.3125 -0.40625 -0.34375q-0.09375 -0.0625 -0.21875 -0.0625q-0.265625 0 -0.5 0.203125q-0.375 0.3125 -0.5625 0.890625q-0.296875 0.875 -0.296875 1.9375l0 1.96875l0.015625 0.5q0 0.53125 0.0625 0.671875q0.109375 0.25 0.3125 0.359375q0.21875 0.109375 0.734375 0.140625l0 0.328125l-4.59375 0l0 -0.328125q0.546875 -0.046875 0.734375 -0.296875q0.203125 -0.265625 0.203125 -1.375l0 -4.71875q0 -0.71875 -0.0625 -0.921875q-0.09375 -0.25 -0.265625 -0.375q-0.171875 -0.125 -0.609375 -0.171875l0 -0.328125l3.46875 0zm8.427673 -0.25q1.109375 0 2.0625 0.578125q0.96875 0.5625 1.453125 1.625q0.5 1.046875 0.5 2.3125q0 1.8125 -0.90625 3.03125q-1.125 1.46875 -3.078125 1.46875q-1.921875 0 -2.96875 -1.34375q-1.03125 -1.34375 -1.03125 -3.125q0 -1.828125 1.0625 -3.1875q1.0625 -1.359375 2.90625 -1.359375zm0.046875 0.640625q-0.46875 0 -0.8125 0.359375q-0.328125 0.34375 -0.4375 1.375q-0.09375 1.03125 -0.09375 2.875q0 0.96875 0.125 1.828125q0.109375 0.640625 0.4375 0.984375q0.328125 0.328125 0.734375 0.328125q0.421875 0 0.6875 -0.21875q0.359375 -0.3125 0.46875 -0.875q0.1875 -0.859375 0.1875 -3.5q0 -1.546875 -0.171875 -2.125q-0.171875 -0.578125 -0.515625 -0.84375q-0.234375 -0.1875 -0.609375 -0.1875zm8.796875 -0.390625l0 1.921875q0.859375 -1.3125 1.484375 -1.734375q0.640625 -0.4375 1.234375 -0.4375q0.515625 0 0.8125 0.3125q0.3125 0.3125 0.3125 0.890625q0 0.609375 -0.296875 0.953125q-0.296875 0.328125 -0.71875 0.328125q-0.484375 0 -0.84375 -0.3125q-0.34375 -0.3125 -0.40625 -0.34375q-0.09375 -0.0625 -0.21875 -0.0625q-0.265625 0 -0.5 0.203125q-0.375 0.3125 -0.5625 0.890625q-0.296875 0.875 -0.296875 1.9375l0 1.96875l0.015625 0.5q0 0.53125 0.0625 0.671875q0.109375 0.25 0.3125 0.359375q0.21875 0.109375 0.734375 0.140625l0 0.328125l-4.59375 0l0 -0.328125q0.546875 -0.046875 0.734375 -0.296875q0.203125 -0.265625 0.203125 -1.375l0 -4.71875q0 -0.71875 -0.0625 -0.921875q-0.09375 -0.25 -0.265625 -0.375q-0.171875 -0.125 -0.609375 -0.171875l0 -0.328125l3.46875 0z" fill-rule="nonzero"/><path fill="#000000" fill-opacity="0.0" d="m252.54575 179.89764l0 0c0 -10.654312 8.637024 -19.291351 19.291351 -19.291351l0 0c5.1163635 0 10.023193 2.032486 13.641022 5.6503143c3.6178284 3.6178284 5.650299 8.524643 5.650299 13.641037l0 0c0 10.654312 -8.637024 19.291336 -19.29132 19.291336l0 0c-10.654327 0 -19.291351 -8.637024 -19.291351 -19.291336z" fill-rule="evenodd"/><path fill="#000000" fill-opacity="0.0" d="m271.8371 160.6063l0 38.582687m-19.291351 -19.291336l38.582672 0" fill-rule="evenodd"/><path fill="#000000" fill-opacity="0.0" d="m252.54575 179.89764l0 0c0 -10.654312 8.637024 -19.291351 19.291351 -19.291351l0 0c5.1163635 0 10.023193 2.032486 13.641022 5.6503143c3.6178284 3.6178284 5.650299 8.524643 5.650299 13.641037l0 0c0 10.654312 -8.637024 19.291336 -19.29132 19.291336l0 0c-10.654327 0 -19.291351 -8.637024 -19.291351 -19.291336z" fill-rule="evenodd"/><path stroke="#ff0000" stroke-width="1.0" stroke-linejoin="round" stroke-linecap="butt" d="m271.8371 160.6063l0 38.582687m-19.291351 -19.291336l38.582672 0" fill-rule="evenodd"/><path stroke="#ff0000" stroke-width="1.0" stroke-linejoin="round" stroke-linecap="butt" d="m252.54575 179.89764l0 0c0 -10.654312 8.637024 -19.291351 19.291351 -19.291351l0 0c5.1163635 0 10.023193 2.032486 13.641022 5.6503143c3.6178284 3.6178284 5.650299 8.524643 5.650299 13.641037l0 0c0 10.654312 -8.637024 19.291336 -19.29132 19.291336l0 0c-10.654327 0 -19.291351 -8.637024 -19.291351 -19.291336z" fill-rule="evenodd"/><path fill="#000000" fill-opacity="0.0" d="m305.53186 269.7759l-33.700806 0l0 -70.58267" fill-rule="evenodd"/><path stroke="#ffffff" stroke-width="3.0" stroke-linejoin="round" stroke-linecap="butt" d="m305.53183 269.7759l-33.700775 0l0 -60.301422" fill-rule="evenodd"/><path fill="#ffffff" stroke="#ffffff" stroke-width="3.0" stroke-linecap="butt" d="m271.83105 209.4745l3.3737488 3.3737488l-3.3737488 -9.269302l-3.3737488 9.269302z" fill-rule="evenodd"/><path fill="#000000" d="m73.67278 61.248547l0 0c0 -5.2446365 4.2516174 -9.496254 9.496254 -9.496254l127.36969 0c2.51857 0 4.933975 1.0004959 6.7148743 2.7813911c1.7808838 1.7808914 2.7813873 4.1963005 2.7813873 6.714863l0 37.983875c0 5.2446365 -4.2516174 9.496254 -9.496262 9.496254l-127.36969 0l0 0c-5.2446365 0 -9.496254 -4.2516174 -9.496254 -9.496254z" fill-rule="evenodd"/><path stroke="#ffffff" stroke-width="1.0" stroke-linejoin="round" stroke-linecap="butt" d="m73.67278 61.248547l0 0c0 -5.2446365 4.2516174 -9.496254 9.496254 -9.496254l127.36969 0c2.51857 0 4.933975 1.0004959 6.7148743 2.7813911c1.7808838 1.7808914 2.7813873 4.1963005 2.7813873 6.714863l0 37.983875c0 5.2446365 -4.2516174 9.496254 -9.496262 9.496254l-127.36969 0l0 0c-5.2446365 0 -9.496254 -4.2516174 -9.496254 -9.496254z" fill-rule="evenodd"/><path fill="#00bfff" d="m103.36804 76.066734l0 3.421875q0 1.0 0.125 1.265625q0.125 0.265625 0.4375 0.421875q0.3125 0.140625 1.15625 0.140625l0 0.34375l-6.28125 0l0 -0.34375q0.859375 0 1.15625 -0.15625q0.3125 -0.15625 0.4375 -0.40625q0.125 -0.265625 0.125 -1.265625l0 -8.015625q0 -1.0 -0.125 -1.25q-0.125 -0.265625 -0.4375 -0.421875q-0.296875 -0.15625 -1.15625 -0.15625l0 -0.34375l5.390625 0q2.65625 0 3.8125 0.953125q1.15625 0.953125 1.15625 2.375q0 1.203125 -0.75 2.0625q-0.734375 0.84375 -2.046875 1.15625q-0.890625 0.21875 -3.0 0.21875zm0 -6.046875l0 5.34375q0.3125 0.015625 0.46875 0.015625q1.109375 0 1.703125 -0.65625q0.609375 -0.671875 0.609375 -2.046875q0 -1.375 -0.609375 -2.015625q-0.59375 -0.640625 -1.796875 -0.640625l-0.375 0zm10.520981 3.125l0 1.921875q0.859375 -1.3125 1.484375 -1.734375q0.640625 -0.4375 1.234375 -0.4375q0.515625 0 0.8125 0.3125q0.3125 0.3125 0.3125 0.890625q0 0.609375 -0.296875 0.953125q-0.296875 0.328125 -0.71875 0.328125q-0.484375 0 -0.84375 -0.3125q-0.34375 -0.3125 -0.40625 -0.34375q-0.09375 -0.0625 -0.21875 -0.0625q-0.265625 0 -0.5 0.203125q-0.375 0.3125 -0.5625 0.890625q-0.296875 0.875 -0.296875 1.9375l0 1.96875l0.015625 0.5q0 0.53125 0.0625 0.671875q0.109375 0.25 0.3125 0.359375q0.21875 0.109375 0.734375 0.140625l0 0.328125l-4.59375 0l0 -0.328125q0.546875 -0.046875 0.734375 -0.296875q0.203125 -0.265625 0.203125 -1.375l0 -4.71875q0 -0.71875 -0.0625 -0.921875q-0.09375 -0.25 -0.265625 -0.375q-0.171875 -0.125 -0.609375 -0.171875l0 -0.328125l3.46875 0zm11.630798 3.953125l-4.671875 0q0.078125 1.6875 0.90625 2.671875q0.625 0.765625 1.5 0.765625q0.546875 0 0.984375 -0.296875q0.453125 -0.3125 0.96875 -1.109375l0.3125 0.203125q-0.6875 1.40625 -1.53125 2.0q-0.84375 0.578125 -1.9375 0.578125q-1.890625 0 -2.875 -1.453125q-0.78125 -1.171875 -0.78125 -2.921875q0 -2.125 1.15625 -3.375q1.15625 -1.265625 2.703125 -1.265625q1.28125 0 2.234375 1.0625q0.953125 1.046875 1.03125 3.140625zm-2.234375 -0.609375q0 -1.46875 -0.171875 -2.015625q-0.15625 -0.546875 -0.484375 -0.828125q-0.203125 -0.171875 -0.515625 -0.171875q-0.46875 0 -0.78125 0.46875q-0.53125 0.8125 -0.53125 2.21875l0 0.328125l2.484375 0zm11.577408 -7.1875l0 9.8125q0 0.984375 0.0625 1.171875q0.0625 0.296875 0.265625 0.453125q0.21875 0.140625 0.71875 0.171875l0 0.296875l-3.59375 0.703125l0 -1.34375q-0.640625 0.78125 -1.15625 1.0625q-0.5 0.28125 -1.140625 0.28125q-1.625 0 -2.578125 -1.453125q-0.765625 -1.1875 -0.765625 -2.90625q0 -1.375 0.46875 -2.453125q0.484375 -1.09375 1.296875 -1.640625q0.828125 -0.5625 1.78125 -0.5625q0.609375 0 1.078125 0.234375q0.484375 0.234375 1.015625 0.828125l0 -2.578125q0 -0.96875 -0.078125 -1.171875q-0.109375 -0.265625 -0.328125 -0.390625q-0.21875 -0.125 -0.828125 -0.125l0 -0.390625l3.78125 0zm-2.546875 5.78125q-0.671875 -1.296875 -1.65625 -1.296875q-0.328125 0 -0.546875 0.1875q-0.34375 0.28125 -0.5625 1.0q-0.203125 0.703125 -0.203125 2.171875q0 1.609375 0.234375 2.390625q0.234375 0.765625 0.640625 1.109375q0.21875 0.171875 0.578125 0.171875q0.796875 0 1.515625 -1.25l0 -4.484375zm6.688217 -6.0625q0.59375 0 1.0 0.421875q0.421875 0.40625 0.421875 0.984375q0 0.578125 -0.421875 1.0q-0.40625 0.40625 -1.0 0.40625q-0.578125 0 -0.984375 -0.40625q-0.40625 -0.421875 -0.40625 -1.0q0 -0.578125 0.40625 -0.984375q0.40625 -0.421875 0.984375 -0.421875zm1.28125 4.125l0 6.75q0 0.90625 0.203125 1.15625q0.21875 0.25 0.828125 0.28125l0 0.328125l-4.609375 0l0 -0.328125q0.578125 -0.015625 0.84375 -0.328125q0.1875 -0.203125 0.1875 -1.109375l0 -4.96875q0 -0.90625 -0.21875 -1.15625q-0.203125 -0.25 -0.8125 -0.296875l0 -0.328125l3.578125 0zm7.245804 -0.234375l0.140625 2.90625l-0.3125 0q-0.5625 -1.296875 -1.15625 -1.765625q-0.59375 -0.484375 -1.1875 -0.484375q-0.375 0 -0.640625 0.25q-0.265625 0.25 -0.265625 0.578125q0 0.25 0.1875 0.484375q0.28125 0.375 1.625 1.28125q1.34375 0.90625 1.765625 1.546875q0.421875 0.625 0.421875 1.40625q0 0.703125 -0.359375 1.390625q-0.34375 0.6875 -1.0 1.046875q-0.640625 0.359375 -1.421875 0.359375q-0.609375 0 -1.640625 -0.375q-0.265625 -0.109375 -0.375 -0.109375q-0.296875 0 -0.5 0.46875l-0.296875 0l-0.140625 -3.0625l0.3125 0q0.40625 1.203125 1.109375 1.8125q0.71875 0.59375 1.359375 0.59375q0.4375 0 0.71875 -0.265625q0.28125 -0.28125 0.28125 -0.65625q0 -0.4375 -0.28125 -0.75q-0.265625 -0.328125 -1.21875 -0.96875q-1.390625 -0.96875 -1.796875 -1.484375q-0.609375 -0.75 -0.609375 -1.640625q0 -0.984375 0.671875 -1.78125q0.6875 -0.796875 1.96875 -0.796875q0.703125 0 1.34375 0.328125q0.25 0.140625 0.40625 0.140625q0.15625 0 0.25 -0.0625q0.109375 -0.078125 0.328125 -0.390625l0.3125 0zm5.260269 -2.890625l0 3.125l2.015625 0l0 0.90625l-2.015625 0l0 5.25q0 0.734375 0.0625 0.953125q0.0625 0.21875 0.234375 0.359375q0.171875 0.125 0.328125 0.125q0.59375 0 1.109375 -0.90625l0.28125 0.203125q-0.734375 1.75 -2.390625 1.75q-0.8125 0 -1.375 -0.453125q-0.5625 -0.453125 -0.71875 -1.015625q-0.09375 -0.3125 -0.09375 -1.671875l0 -4.59375l-1.109375 0l0 -0.328125q1.15625 -0.8125 1.953125 -1.703125q0.8125 -0.890625 1.40625 -2.0l0.3125 0zm6.837677 2.875q1.109375 0 2.0625 0.578125q0.96875 0.5625 1.453125 1.625q0.5 1.046875 0.5 2.3125q0 1.8125 -0.90625 3.03125q-1.125 1.46875 -3.078125 1.46875q-1.921875 0 -2.96875 -1.34375q-1.03125 -1.34375 -1.03125 -3.125q0 -1.828125 1.0625 -3.1875q1.0625 -1.359375 2.90625 -1.359375zm0.046875 0.640625q-0.46875 0 -0.8125 0.359375q-0.328125 0.34375 -0.4375 1.375q-0.09375 1.03125 -0.09375 2.875q0 0.96875 0.125 1.828125q0.109375 0.640625 0.4375 0.984375q0.328125 0.328125 0.734375 0.328125q0.421875 0 0.6875 -0.21875q0.359375 -0.3125 0.46875 -0.875q0.1875 -0.859375 0.1875 -3.5q0 -1.546875 -0.171875 -2.125q-0.171875 -0.578125 -0.515625 -0.84375q-0.234375 -0.1875 -0.609375 -0.1875zm8.796875 -0.390625l0 1.921875q0.859375 -1.3125 1.484375 -1.734375q0.640625 -0.4375 1.234375 -0.4375q0.515625 0 0.8125 0.3125q0.3125 0.3125 0.3125 0.890625q0 0.609375 -0.296875 0.953125q-0.296875 0.328125 -0.71875 0.328125q-0.484375 0 -0.84375 -0.3125q-0.34375 -0.3125 -0.40625 -0.34375q-0.09375 -0.0625 -0.21875 -0.0625q-0.265625 0 -0.5 0.203125q-0.375 0.3125 -0.5625 0.890625q-0.296875 0.875 -0.296875 1.9375l0 1.96875l0.015625 0.5q0 0.53125 0.0625 0.671875q0.109375 0.25 0.3125 0.359375q0.21875 0.109375 0.734375 0.140625l0 0.328125l-4.59375 0l0 -0.328125q0.546875 -0.046875 0.734375 -0.296875q0.203125 -0.265625 0.203125 -1.375l0 -4.71875q0 -0.71875 -0.0625 -0.921875q-0.09375 -0.25 -0.265625 -0.375q-0.171875 -0.125 -0.609375 -0.171875l0 -0.328125l3.46875 0zm8.139908 -3.125l0 3.125l2.015625 0l0 0.90625l-2.015625 0l0 5.25q0 0.734375 0.0625 0.953125q0.0625 0.21875 0.234375 0.359375q0.171875 0.125 0.328125 0.125q0.59375 0 1.109375 -0.90625l0.28125 0.203125q-0.734375 1.75 -2.390625 1.75q-0.8125 0 -1.375 -0.453125q-0.5625 -0.453125 -0.71875 -1.015625q-0.09375 -0.3125 -0.09375 -1.671875l0 -4.59375l-1.109375 0l0 -0.328125q1.15625 -0.8125 1.953125 -1.703125q0.8125 -0.890625 1.40625 -2.0l0.3125 0zm10.040802 7.078125l-4.671875 0q0.078125 1.6875 0.90625 2.671875q0.625 0.765625 1.5 0.765625q0.546875 0 0.984375 -0.296875q0.453125 -0.3125 0.96875 -1.109375l0.3125 0.203125q-0.6875 1.40625 -1.53125 2.0q-0.84375 0.578125 -1.9375 0.578125q-1.890625 0 -2.875 -1.453125q-0.78125 -1.171875 -0.78125 -2.921875q0 -2.125 1.15625 -3.375q1.15625 -1.265625 2.703125 -1.265625q1.28125 0 2.234375 1.0625q0.953125 1.046875 1.03125 3.140625zm-2.234375 -0.609375q0 -1.46875 -0.171875 -2.015625q-0.15625 -0.546875 -0.484375 -0.828125q-0.203125 -0.171875 -0.515625 -0.171875q-0.46875 0 -0.78125 0.46875q-0.53125 0.8125 -0.53125 2.21875l0 0.328125l2.484375 0zm6.827408 -3.34375l0 1.921875q0.859375 -1.3125 1.484375 -1.734375q0.640625 -0.4375 1.234375 -0.4375q0.515625 0 0.8125 0.3125q0.3125 0.3125 0.3125 0.890625q0 0.609375 -0.296875 0.953125q-0.296875 0.328125 -0.71875 0.328125q-0.484375 0 -0.84375 -0.3125q-0.34375 -0.3125 -0.40625 -0.34375q-0.09375 -0.0625 -0.21875 -0.0625q-0.265625 0 -0.5 0.203125q-0.375 0.3125 -0.5625 0.890625q-0.296875 0.875 -0.296875 1.9375l0 1.96875l0.015625 0.5q0 0.53125 0.0625 0.671875q0.109375 0.25 0.3125 0.359375q0.21875 0.109375 0.734375 0.140625l0 0.328125l-4.59375 0l0 -0.328125q0.546875 -0.046875 0.734375 -0.296875q0.203125 -0.265625 0.203125 -1.375l0 -4.71875q0 -0.71875 -0.0625 -0.921875q-0.09375 -0.25 -0.265625 -0.375q-0.171875 -0.125 -0.609375 -0.171875l0 -0.328125l3.46875 0z" fill-rule="nonzero"/><path fill="#00bfff" d="m105.29929 88.387985l0 0.203125q-0.484375 0.3125 -0.703125 0.609375q-0.3125 0.40625 -0.484375 1.046875q-0.21875 0.796875 -0.21875 2.234375q0 1.34375 0.203125 2.09375q0.203125 0.75 0.546875 1.203125q0.234375 0.3125 0.65625 0.5625l0 0.234375q-1.09375 -0.375 -1.859375 -1.515625q-0.765625 -1.140625 -0.765625 -2.609375q0 -1.453125 0.75 -2.578125q0.765625 -1.125 1.875 -1.484375zm3.9032135 5.21875l0.140625 0.109375q-0.3125 0.5625 -0.765625 0.84375q-0.4375 0.265625 -0.9375 0.265625q-0.859375 0 -1.375 -0.640625q-0.5 -0.640625 -0.5 -1.546875q0 -0.859375 0.453125 -1.53125q0.5625 -0.796875 1.546875 -0.796875q0.671875 0 1.046875 0.34375q0.390625 0.328125 0.390625 0.734375q0 0.265625 -0.15625 0.421875q-0.15625 0.15625 -0.40625 0.15625q-0.265625 0 -0.453125 -0.171875q-0.171875 -0.1875 -0.203125 -0.640625q-0.03125 -0.296875 -0.140625 -0.40625q-0.09375 -0.109375 -0.234375 -0.109375q-0.21875 0 -0.375 0.234375q-0.25 0.34375 -0.25 1.0625q0 0.609375 0.1875 1.15625q0.203125 0.546875 0.53125 0.8125q0.25 0.203125 0.59375 0.203125q0.21875 0 0.421875 -0.109375q0.203125 -0.109375 0.484375 -0.390625zm2.671524 -3.296875q0.546875 0 1.015625 0.296875q0.484375 0.28125 0.734375 0.8125q0.25 0.53125 0.25 1.15625q0 0.90625 -0.453125 1.515625q-0.5625 0.734375 -1.53125 0.734375q-0.96875 0 -1.484375 -0.671875q-0.515625 -0.671875 -0.515625 -1.5625q0 -0.921875 0.515625 -1.59375q0.53125 -0.6875 1.46875 -0.6875zm0.015625 0.328125q-0.234375 0 -0.40625 0.171875q-0.15625 0.171875 -0.21875 0.703125q-0.046875 0.515625 -0.046875 1.421875q0 0.5 0.0625 0.921875q0.046875 0.3125 0.203125 0.484375q0.171875 0.171875 0.390625 0.171875q0.203125 0 0.34375 -0.109375q0.171875 -0.15625 0.234375 -0.4375q0.09375 -0.4375 0.09375 -1.75q0 -0.765625 -0.09375 -1.046875q-0.09375 -0.296875 -0.25 -0.4375q-0.125 -0.09375 -0.3125 -0.09375zm4.2890625 3.625l0 1.59375q0 0.328125 0.046875 0.4375q0.046875 0.125 0.15625 0.171875q0.109375 0.0625 0.4375 0.0625l0 0.171875l-2.4375 0l0 -0.171875q0.28125 -0.015625 0.421875 -0.15625q0.09375 -0.109375 0.09375 -0.546875l0 -4.5q0 -0.453125 -0.109375 -0.578125q-0.09375 -0.125 -0.40625 -0.140625l0 -0.171875l1.796875 0l0 0.5625q0.21875 -0.328125 0.453125 -0.46875q0.328125 -0.21875 0.71875 -0.21875q0.46875 0 0.84375 0.296875q0.390625 0.296875 0.59375 0.828125q0.203125 0.515625 0.203125 1.109375q0 0.65625 -0.203125 1.1875q-0.203125 0.53125 -0.609375 0.8125q-0.390625 0.28125 -0.875 0.28125q-0.34375 0 -0.65625 -0.15625q-0.21875 -0.109375 -0.46875 -0.40625zm0 -0.453125q0.390625 0.546875 0.828125 0.546875q0.25 0 0.40625 -0.25q0.234375 -0.390625 0.234375 -1.453125q0 -1.109375 -0.25 -1.515625q-0.171875 -0.265625 -0.46875 -0.265625q-0.453125 0 -0.75 0.65625l0 2.28125zm5.484741 1.0625l-1.375 -3.15625q-0.3125 -0.71875 -0.46875 -0.875q-0.140625 -0.171875 -0.34375 -0.234375l0 -0.171875l2.265625 0l0 0.171875q-0.21875 0.015625 -0.3125 0.09375q-0.09375 0.078125 -0.09375 0.1875q0 0.171875 0.21875 0.671875l0.734375 1.671875l0.5 -1.28125q0.265625 -0.6875 0.265625 -0.96875q0 -0.15625 -0.109375 -0.25q-0.109375 -0.109375 -0.390625 -0.125l0 -0.171875l1.421875 0l0 0.171875q-0.203125 0.03125 -0.34375 0.171875q-0.125 0.125 -0.4375 0.9375l-1.21875 3.15625q-0.453125 1.1875 -0.6875 1.453125q-0.3125 0.390625 -0.78125 0.390625q-0.375 0 -0.609375 -0.21875q-0.234375 -0.21875 -0.234375 -0.515625q0 -0.265625 0.15625 -0.4375q0.15625 -0.171875 0.390625 -0.171875q0.234375 0 0.375 0.140625q0.140625 0.140625 0.140625 0.453125q0 0.171875 0.046875 0.21875q0.03125 0.046875 0.09375 0.046875q0.109375 0 0.234375 -0.125q0.1875 -0.1875 0.4375 -0.875l0.125 -0.359375zm7.0586014 -4.5625q0.546875 0 1.015625 0.296875q0.484375 0.28125 0.734375 0.8125q0.25 0.53125 0.25 1.15625q0 0.90625 -0.453125 1.515625q-0.5625 0.734375 -1.53125 0.734375q-0.9687576 0 -1.4843826 -0.671875q-0.515625 -0.671875 -0.515625 -1.5625q0 -0.921875 0.515625 -1.59375q0.53125 -0.6875 1.4687576 -0.6875zm0.015625 0.328125q-0.234375 0 -0.40625 0.171875q-0.15625 0.171875 -0.21875 0.703125q-0.046875 0.515625 -0.046875 1.421875q0 0.5 0.0625 0.921875q0.046875 0.3125 0.203125 0.484375q0.171875 0.171875 0.390625 0.171875q0.203125 0 0.34375 -0.109375q0.171875 -0.15625 0.234375 -0.4375q0.09375 -0.4375 0.09375 -1.75q0 -0.765625 -0.09375 -1.046875q-0.09375 -0.296875 -0.25 -0.4375q-0.125 -0.09375 -0.3125 -0.09375zm4.5078125 0.25l0 2.953125q0 0.4375 0.078125 0.546875q0.15625 0.15625 0.546875 0.15625l0 0.15625l-2.515625 0l0 -0.15625q0.296875 -0.015625 0.40625 -0.078125q0.125 -0.0625 0.171875 -0.171875q0.046875 -0.109375 0.046875 -0.453125l0 -2.953125l-0.625 0l0 -0.453125l0.625 0l0 -0.3125l0 -0.203125q0 -0.65625 0.46875 -1.09375q0.484375 -0.4375 1.3125 -0.4375q0.546875 0 0.8125 0.21875q0.28125 0.203125 0.28125 0.453125q0 0.203125 -0.171875 0.359375q-0.15625 0.140625 -0.4375 0.140625q-0.234375 0 -0.375 -0.125q-0.140625 -0.125 -0.140625 -0.265625q0 -0.046875 0.03125 -0.171875q0.015625 -0.078125 0.015625 -0.140625q0 -0.09375 -0.0625 -0.140625q-0.0625 -0.078125 -0.171875 -0.078125q-0.140625 0 -0.234375 0.109375q-0.078125 0.109375 -0.078125 0.359375l0.015625 0.796875l0 0.53125l0.625 0l0 0.453125l-0.625 0zm5.7664948 1.015625l0 1.71875q0 0.5 0.0625 0.625q0.0625 0.125 0.21875 0.203125q0.15625 0.078125 0.578125 0.078125l0 0.171875l-3.140625 0l0 -0.171875q0.4375 0 0.578125 -0.078125q0.15625 -0.078125 0.21875 -0.203125q0.0625 -0.125 0.0625 -0.625l0 -4.015625q0 -0.5 -0.0625 -0.625q-0.0625 -0.140625 -0.21875 -0.203125q-0.15625 -0.078125 -0.578125 -0.078125l0 -0.171875l2.6875 0q1.3437347 0 1.9218597 0.46875q0.578125 0.46875 0.578125 1.1875q0 0.59375 -0.375 1.03125q-0.375 0.421875 -1.03125 0.578125q-0.43748474 0.109375 -1.4999847 0.109375zm0 -3.03125l0 2.671875q0.15625 0.015625 0.234375 0.015625q0.546875 0 0.84375 -0.328125q0.3125 -0.328125 0.3125 -1.03125q0 -0.6875 -0.3125 -1.0q-0.296875 -0.328125 -0.890625 -0.328125l-0.1875 0zm5.510483 1.4375q0.546875 0 1.015625 0.296875q0.484375 0.28125 0.734375 0.8125q0.25 0.53125 0.25 1.15625q0 0.90625 -0.453125 1.515625q-0.5625 0.734375 -1.53125 0.734375q-0.96875 0 -1.484375 -0.671875q-0.515625 -0.671875 -0.515625 -1.5625q0 -0.921875 0.515625 -1.59375q0.53125 -0.6875 1.46875 -0.6875zm0.015625 0.328125q-0.234375 0 -0.40625 0.171875q-0.15625 0.171875 -0.21875 0.703125q-0.046875 0.515625 -0.046875 1.421875q0 0.5 0.0625 0.921875q0.046875 0.3125 0.203125 0.484375q0.171875 0.171875 0.390625 0.171875q0.203125 0 0.34375 -0.109375q0.171875 -0.15625 0.234375 -0.4375q0.09375 -0.4375 0.09375 -1.75q0 -0.765625 -0.09375 -1.046875q-0.09375 -0.296875 -0.25 -0.4375q-0.125 -0.09375 -0.3125 -0.09375zm5.3203125 -0.3125l0.078125 1.453125l-0.15625 0q-0.28125 -0.65625 -0.578125 -0.890625q-0.296875 -0.234375 -0.59375 -0.234375q-0.1875 0 -0.328125 0.125q-0.125 0.125 -0.125 0.296875q0 0.125 0.09375 0.234375q0.140625 0.1875 0.8125 0.640625q0.671875 0.453125 0.875 0.765625q0.21875 0.3125 0.21875 0.703125q0 0.359375 -0.1875 0.703125q-0.171875 0.34375 -0.5 0.53125q-0.3125 0.171875 -0.703125 0.171875q-0.3125 0 -0.8125 -0.1875q-0.140625 -0.046875 -0.1875 -0.046875q-0.15625 0 -0.25 0.21875l-0.15625 0l-0.078125 -1.53125l0.15625 0q0.203125 0.609375 0.5625 0.90625q0.359375 0.296875 0.6875 0.296875q0.21875 0 0.34375 -0.125q0.140625 -0.140625 0.140625 -0.328125q0 -0.21875 -0.140625 -0.375q-0.125 -0.171875 -0.59375 -0.484375q-0.703125 -0.484375 -0.90625 -0.734375q-0.296875 -0.375 -0.296875 -0.828125q0 -0.5 0.328125 -0.890625q0.34375 -0.40625 0.984375 -0.40625q0.34375 0 0.671875 0.171875q0.125 0.0625 0.203125 0.0625q0.078125 0 0.125 -0.03125q0.046875 -0.03125 0.15625 -0.1875l0.15625 0zm2.6301422 -1.4375l0 1.546875l1.015625 0l0 0.453125l-1.015625 0l0 2.640625q0 0.359375 0.03125 0.46875q0.046875 0.109375 0.125 0.171875q0.09375 0.0625 0.15625 0.0625q0.296875 0 0.5625 -0.453125l0.140625 0.109375q-0.375 0.875 -1.203125 0.875q-0.40625 0 -0.6875 -0.21875q-0.265625 -0.234375 -0.34375 -0.515625q-0.046875 -0.15625 -0.046875 -0.828125l0 -2.3125l-0.5625 0l0 -0.15625q0.578125 -0.40625 0.96875 -0.84375q0.40625 -0.453125 0.71875 -1.0l0.140625 0zm5.5594635 -0.359375l0 4.890625q0 0.5 0.03125 0.59375q0.03125 0.15625 0.125 0.234375q0.109375 0.0625 0.375 0.078125l0 0.15625l-1.8125 0.34375l0 -0.671875q-0.3125 0.390625 -0.578125 0.53125q-0.25 0.140625 -0.5625 0.140625q-0.8125 0 -1.28125 -0.71875q-0.390625 -0.59375 -0.390625 -1.453125q0 -0.6875 0.234375 -1.234375q0.234375 -0.546875 0.640625 -0.828125q0.421875 -0.28125 0.890625 -0.28125q0.3125 0 0.546875 0.125q0.234375 0.109375 0.5 0.40625l0 -1.28125q0 -0.484375 -0.03125 -0.578125q-0.0625 -0.140625 -0.171875 -0.203125q-0.109375 -0.0625 -0.40625 -0.0625l0 -0.1875l1.890625 0zm-1.28125 2.890625q-0.328125 -0.65625 -0.8125 -0.65625q-0.171875 0 -0.28125 0.09375q-0.171875 0.140625 -0.28125 0.5q-0.109375 0.34375 -0.109375 1.078125q0 0.8125 0.125 1.203125q0.125 0.390625 0.328125 0.5625q0.09375 0.078125 0.28125 0.078125q0.40625 0 0.75 -0.625l0 -2.234375zm3.3597412 -3.046875q0.296875 0 0.5 0.21875q0.203125 0.203125 0.203125 0.5q0 0.28125 -0.21875 0.484375q-0.203125 0.203125 -0.484375 0.203125q-0.296875 0 -0.5 -0.203125q-0.203125 -0.203125 -0.203125 -0.484375q0 -0.296875 0.203125 -0.5q0.203125 -0.21875 0.5 -0.21875zm0.640625 2.0625l0 3.375q0 0.453125 0.09375 0.578125q0.109375 0.125 0.40625 0.15625l0 0.15625l-2.296875 0l0 -0.15625q0.28125 -0.015625 0.421875 -0.171875q0.09375 -0.109375 0.09375 -0.5625l0 -2.484375q0 -0.453125 -0.109375 -0.578125q-0.109375 -0.125 -0.40625 -0.140625l0 -0.171875l1.796875 0zm3.6072845 -0.109375l0.078125 1.453125l-0.15625 0q-0.28125 -0.65625 -0.578125 -0.890625q-0.296875 -0.234375 -0.59375 -0.234375q-0.1875 0 -0.328125 0.125q-0.125 0.125 -0.125 0.296875q0 0.125 0.09375 0.234375q0.140625 0.1875 0.8125 0.640625q0.671875 0.453125 0.875 0.765625q0.21875 0.3125 0.21875 0.703125q0 0.359375 -0.1875 0.703125q-0.171875 0.34375 -0.5 0.53125q-0.3125 0.171875 -0.703125 0.171875q-0.3125 0 -0.8125 -0.1875q-0.140625 -0.046875 -0.1875 -0.046875q-0.15625 0 -0.25 0.21875l-0.15625 0l-0.078125 -1.53125l0.15625 0q0.203125 0.609375 0.5625 0.90625q0.359375 0.296875 0.6875 0.296875q0.21875 0 0.34375 -0.125q0.140625 -0.140625 0.140625 -0.328125q0 -0.21875 -0.140625 -0.375q-0.125 -0.171875 -0.59375 -0.484375q-0.703125 -0.484375 -0.90625 -0.734375q-0.296875 -0.375 -0.296875 -0.828125q0 -0.5 0.328125 -0.890625q0.34375 -0.40625 0.984375 -0.40625q0.34375 0 0.671875 0.171875q0.125 0.0625 0.203125 0.0625q0.078125 0 0.125 -0.03125q0.046875 -0.03125 0.15625 -0.1875l0.15625 0zm2.6301422 -1.4375l0 1.546875l1.015625 0l0 0.453125l-1.015625 0l0 2.640625q0 0.359375 0.03125 0.46875q0.046875 0.109375 0.125 0.171875q0.09375 0.0625 0.15625 0.0625q0.296875 0 0.5625 -0.453125l0.140625 0.109375q-0.375 0.875 -1.203125 0.875q-0.40625 0 -0.6875 -0.21875q-0.265625 -0.234375 -0.34375 -0.515625q-0.046875 -0.15625 -0.046875 -0.828125l0 -2.3125l-0.5625 0l0 -0.15625q0.578125 -0.40625 0.96875 -0.84375q0.40625 -0.453125 0.71875 -1.0l0.140625 0zm3.4344635 1.421875q0.546875 0 1.015625 0.296875q0.484375 0.28125 0.734375 0.8125q0.25 0.53125 0.25 1.15625q0 0.90625 -0.453125 1.515625q-0.5625 0.734375 -1.53125 0.734375q-0.96875 0 -1.484375 -0.671875q-0.515625 -0.671875 -0.515625 -1.5625q0 -0.921875 0.515625 -1.59375q0.53125 -0.6875 1.46875 -0.6875zm0.015625 0.328125q-0.234375 0 -0.40625 0.171875q-0.15625 0.171875 -0.21875 0.703125q-0.046875 0.515625 -0.046875 1.421875q0 0.5 0.0625 0.921875q0.046875 0.3125 0.203125 0.484375q0.171875 0.171875 0.390625 0.171875q0.203125 0 0.34375 -0.109375q0.171875 -0.15625 0.234375 -0.4375q0.09375 -0.4375 0.09375 -1.75q0 -0.765625 -0.09375 -1.046875q-0.09375 -0.296875 -0.25 -0.4375q-0.125 -0.09375 -0.3125 -0.09375zm4.3984375 -0.203125l0 0.96875q0.421875 -0.65625 0.734375 -0.875q0.328125 -0.21875 0.625 -0.21875q0.25 0 0.40625 0.15625q0.15625 0.15625 0.15625 0.453125q0 0.296875 -0.15625 0.46875q-0.140625 0.171875 -0.34375 0.171875q-0.25 0 -0.4375 -0.15625q-0.171875 -0.15625 -0.203125 -0.171875q-0.046875 -0.03125 -0.09375 -0.03125q-0.140625 0 -0.25 0.109375q-0.1875 0.140625 -0.28125 0.4375q-0.15625 0.4375 -0.15625 0.96875l0 0.984375l0.015625 0.25q0 0.265625 0.03125 0.328125q0.046875 0.125 0.15625 0.1875q0.109375 0.0625 0.359375 0.078125l0 0.15625l-2.296875 0l0 -0.15625q0.28125 -0.03125 0.375 -0.15625q0.09375 -0.140625 0.09375 -0.6875l0 -2.359375q0 -0.359375 -0.03125 -0.46875q-0.046875 -0.125 -0.140625 -0.171875q-0.078125 -0.0625 -0.296875 -0.09375l0 -0.171875l1.734375 0zm4.062149 -1.546875l0 1.546875l1.015625 0l0 0.453125l-1.015625 0l0 2.640625q0 0.359375 0.03125 0.46875q0.046875 0.109375 0.125 0.171875q0.09375 0.0625 0.15625 0.0625q0.296875 0 0.5625 -0.453125l0.140625 0.109375q-0.375 0.875 -1.203125 0.875q-0.40625 0 -0.6875 -0.21875q-0.265625 -0.234375 -0.34375 -0.515625q-0.046875 -0.15625 -0.046875 -0.828125l0 -2.3125l-0.5625 0l0 -0.15625q0.578125 -0.40625 0.96875 -0.84375q0.40625 -0.453125 0.71875 -1.0l0.140625 0zm5.0282135 3.53125l-2.34375 0q0.046875 0.84375 0.453125 1.34375q0.3125 0.375 0.765625 0.375q0.265625 0 0.484375 -0.15625q0.234375 -0.15625 0.484375 -0.546875l0.15625 0.09375q-0.34375 0.71875 -0.765625 1.015625q-0.421875 0.28125 -0.96875 0.28125q-0.953125 0 -1.4375 -0.71875q-0.390625 -0.59375 -0.390625 -1.46875q0 -1.0625 0.578125 -1.6875q0.578125 -0.640625 1.34375 -0.640625q0.65625 0 1.125 0.53125q0.484375 0.53125 0.515625 1.578125zm-1.125 -0.3125q0 -0.734375 -0.078125 -1.0q-0.078125 -0.265625 -0.25 -0.421875q-0.09375 -0.078125 -0.25 -0.078125q-0.234375 0 -0.390625 0.234375q-0.265625 0.40625 -0.265625 1.109375l0 0.15625l1.234375 0zm3.421524 -1.671875l0 0.96875q0.421875 -0.65625 0.734375 -0.875q0.328125 -0.21875 0.625 -0.21875q0.25 0 0.40625 0.15625q0.15625 0.15625 0.15625 0.453125q0 0.296875 -0.15625 0.46875q-0.140625 0.171875 -0.34375 0.171875q-0.25 0 -0.4375 -0.15625q-0.171875 -0.15625 -0.203125 -0.171875q-0.046875 -0.03125 -0.09375 -0.03125q-0.140625 0 -0.25 0.109375q-0.1875 0.140625 -0.28125 0.4375q-0.15625 0.4375 -0.15625 0.96875l0 0.984375l0.015625 0.25q0 0.265625 0.03125 0.328125q0.046875 0.125 0.15625 0.1875q0.109375 0.0625 0.359375 0.078125l0 0.15625l-2.296875 0l0 -0.15625q0.28125 -0.03125 0.375 -0.15625q0.09375 -0.140625 0.09375 -0.6875l0 -2.359375q0 -0.359375 -0.03125 -0.46875q-0.046875 -0.125 -0.140625 -0.171875q-0.078125 -0.0625 -0.296875 -0.09375l0 -0.171875l1.734375 0zm2.171524 6.140625l0 -0.21875q0.484375 -0.3125 0.703125 -0.609375q0.296875 -0.40625 0.484375 -1.046875q0.21875 -0.796875 0.21875 -2.234375q0 -1.34375 -0.203125 -2.078125q-0.203125 -0.75 -0.53125 -1.21875q-0.25 -0.3125 -0.671875 -0.5625l0 -0.21875q1.109375 0.359375 1.859375 1.5q0.765625 1.140625 0.765625 2.609375q0 1.453125 -0.765625 2.578125q-0.75 1.125 -1.859375 1.5z" fill-rule="nonzero"/><path fill="#000000" fill-opacity="0.0" d="m220.03499 80.240486l51.81102 0l0 80.37795" fill-rule="evenodd"/><path stroke="#ffffff" stroke-width="3.0" stroke-linejoin="round" stroke-linecap="butt" d="m220.03499 80.240486l51.81102 0l0 70.09669" fill-rule="evenodd"/><path fill="#ffffff" stroke="#ffffff" stroke-width="3.0" stroke-linecap="butt" d="m271.846 150.33717l-3.3737488 -3.3737488l3.3737488 9.269302l3.3737488 -9.269302z" fill-rule="evenodd"/><path fill="#000000" fill-opacity="0.0" d="m220.03499 80.240486l120.47243 0.22046661" fill-rule="evenodd"/><path stroke="#ffffff" stroke-width="3.0" stroke-linejoin="round" stroke-linecap="butt" d="m220.03499 80.240486l110.19118 0.20166016" fill-rule="evenodd"/><path fill="#ffffff" stroke="#ffffff" stroke-width="3.0" stroke-linecap="butt" d="m330.22617 80.44215l-3.3799133 3.367569l9.275482 -3.356781l-9.263123 -3.390709z" fill-rule="evenodd"/><path fill="#000000" fill-opacity="0.0" d="m453.64468 80.461945l58.70865 0l0 63.27559" fill-rule="evenodd"/><path stroke="#ffffff" stroke-width="3.0" stroke-linejoin="round" stroke-linecap="butt" d="m453.64468 80.461945l58.70865 0l0 52.994324" fill-rule="evenodd"/><path fill="#ffffff" stroke="#ffffff" stroke-width="3.0" stroke-linecap="butt" d="m512.35333 133.45627l-3.3737488 -3.3737488l3.3737488 9.269302l3.3737793 -9.269302z" fill-rule="evenodd"/></g></svg>