<svg version="1.1" viewBox="0.0 0.0 745.4120734908137 207.05774278215222" fill="none" stroke="none" stroke-linecap="square" stroke-miterlimit="10" xmlns:xlink="http://www.w3.org/1999/xlink" xmlns="http://www.w3.org/2000/svg"><clipPath id="p.0"><path d="m0 0l745.41205 0l0 207.05774l-745.41205 0l0 -207.05774z" clip-rule="nonzero"/></clipPath><g clip-path="url(#p.0)"><path fill="#000000" fill-opacity="0.0" d="m0 0l745.41205 0l0 207.05774l-745.41205 0z" fill-rule="evenodd"/><path fill="#000000" fill-opacity="0.0" d="m25.346457 39.57542l0 0c0 -17.070433 13.83832 -30.908752 30.908754 -30.908752l627.22186 0c8.19751 0 16.059265 3.2564487 21.855835 9.052964c5.796509 5.7965164 9.0529175 13.658279 9.0529175 21.85579l0 123.6313c0 17.070435 -13.838318 30.908752 -30.908752 30.908752l-627.22186 0c-17.070435 0 -30.908754 -13.838318 -30.908754 -30.908752z" fill-rule="evenodd"/><path stroke="#000000" stroke-width="1.0" stroke-linejoin="round" stroke-linecap="butt" d="m25.346457 39.57542l0 0c0 -17.070433 13.83832 -30.908752 30.908754 -30.908752l627.22186 0c8.19751 0 16.059265 3.2564487 21.855835 9.052964c5.796509 5.7965164 9.0529175 13.658279 9.0529175 21.85579l0 123.6313c0 17.070435 -13.838318 30.908752 -30.908752 30.908752l-627.22186 0c-17.070435 0 -30.908754 -13.838318 -30.908754 -30.908752z" fill-rule="evenodd"/><path fill="#ff00ff" d="m48.352448 39.01453l0 3.453125q0 1.0 0.125 1.265625q0.125 0.265625 0.4375 0.421875q0.3125 0.140625 1.15625 0.140625l0 0.34375l-6.328125 0l0 -0.34375q0.859375 0 1.15625 -0.15625q0.3125 -0.15625 0.4375 -0.40625q0.125 -0.265625 0.125 -1.265625l0 -8.015625q0 -1.0 -0.125 -1.25q-0.125 -0.265625 -0.4375 -0.421875q-0.3125 -0.15625 -1.15625 -0.15625l0 -0.34375l5.734375 0q2.25 0 3.28125 0.3125q1.046875 0.3125 1.703125 1.15625q0.65625 0.828125 0.65625 1.9375q0 1.375 -0.984375 2.265625q-0.625 0.5625 -1.765625 0.84375l2.96875 4.1875q0.59375 0.8125 0.828125 1.015625q0.375 0.28125 0.875 0.296875l0 0.34375l-3.890625 0l-3.984375 -5.625l-0.8125 0zm0 -6.0625l0 5.40625l0.515625 0q1.265625 0 1.890625 -0.21875q0.640625 -0.234375 1.0 -0.84375q0.359375 -0.609375 0.359375 -1.578125q0 -1.421875 -0.671875 -2.09375q-0.65625 -0.671875 -2.109375 -0.671875l-0.984375 0zm16.363571 7.125l-4.671875 0q0.078125 1.6875 0.90625 2.671875q0.625 0.765625 1.5 0.765625q0.546875 0 0.984375 -0.296875q0.453125 -0.3125 0.96875 -1.109375l0.3125 0.203125q-0.6875 1.40625 -1.53125 2.0q-0.84375 0.578125 -1.9375 0.578125q-1.890625 0 -2.875 -1.453125q-0.78125 -1.171875 -0.78125 -2.921875q0 -2.125 1.15625 -3.375q1.15625 -1.265625 2.703125 -1.265625q1.28125 0 2.234375 1.0625q0.953125 1.046875 1.03125 3.140625zm-2.234375 -0.609375q0 -1.46875 -0.171875 -2.015625q-0.15625 -0.546875 -0.484375 -0.828125q-0.203125 -0.171875 -0.515625 -0.171875q-0.46875 0 -0.78125 0.46875q-0.53125 0.8125 -0.53125 2.21875l0 0.328125l2.484375 0zm8.686783 -3.578125l0.140625 2.90625l-0.3125 0q-0.5625 -1.296875 -1.15625 -1.765625q-0.59375 -0.484375 -1.1875 -0.484375q-0.375 0 -0.640625 0.25q-0.265625 0.25 -0.265625 0.578125q0 0.25 0.1875 0.484375q0.28125 0.375 1.625 1.28125q1.34375 0.90625 1.765625 1.546875q0.421875 0.625 0.421875 1.40625q0 0.703125 -0.359375 1.390625q-0.34375 0.6875 -1.0 1.046875q-0.640625 0.359375 -1.421875 0.359375q-0.609375 0 -1.640625 -0.375q-0.265625 -0.109375 -0.375 -0.109375q-0.296875 0 -0.5 0.46875l-0.296875 0l-0.140625 -3.0625l0.3125 0q0.40625 1.203125 1.109375 1.8125q0.71875 0.59375 1.359375 0.59375q0.4375 0 0.71875 -0.265625q0.28125 -0.28125 0.28125 -0.65625q0 -0.4375 -0.28125 -0.75q-0.265625 -0.328125 -1.21875 -0.96875q-1.390625 -0.96875 -1.796875 -1.484375q-0.609375 -0.75 -0.609375 -1.640625q0 -0.984375 0.671875 -1.78125q0.6875 -0.796875 1.96875 -0.796875q0.703125 0 1.34375 0.328125q0.25 0.140625 0.40625 0.140625q0.15625 0 0.25 -0.0625q0.109375 -0.078125 0.328125 -0.390625l0.3125 0zm3.9165192 -3.890625q0.59375 0 1.0 0.421875q0.421875 0.40625 0.421875 0.984375q0 0.578125 -0.421875 1.0q-0.40625 0.40625 -1.0 0.40625q-0.578125 0 -0.984375 -0.40625q-0.40625 -0.421875 -0.40625 -1.0q0 -0.578125 0.40625 -0.984375q0.40625 -0.421875 0.984375 -0.421875zm1.28125 4.125l0 6.75q0 0.90625 0.203125 1.15625q0.21875 0.25 0.828125 0.28125l0 0.328125l-4.609375 0l0 -0.328125q0.578125 -0.015625 0.84375 -0.328125q0.1875 -0.203125 0.1875 -1.109375l0 -4.96875q0 -0.90625 -0.21875 -1.15625q-0.203125 -0.25 -0.8125 -0.296875l0 -0.328125l3.578125 0zm10.136429 -3.84375l0 9.8125q0 0.984375 0.0625 1.171875q0.0625 0.296875 0.265625 0.453125q0.21875 0.140625 0.71875 0.171875l0 0.296875l-3.59375 0.703125l0 -1.34375q-0.640625 0.78125 -1.15625 1.0625q-0.5 0.28125 -1.140625 0.28125q-1.625 0 -2.578125 -1.453125q-0.765625 -1.1875 -0.765625 -2.90625q0 -1.375 0.46875 -2.453125q0.484375 -1.09375 1.296875 -1.640625q0.828125 -0.5625 1.78125 -0.5625q0.609375 0 1.078125 0.234375q0.484375 0.234375 1.015625 0.828125l0 -2.578125q0 -0.96875 -0.078125 -1.171875q-0.109375 -0.265625 -0.328125 -0.390625q-0.21875 -0.125 -0.828125 -0.125l0 -0.390625l3.78125 0zm-2.546875 5.78125q-0.671875 -1.296875 -1.65625 -1.296875q-0.328125 0 -0.546875 0.1875q-0.34375 0.28125 -0.5625 1.0q-0.203125 0.703125 -0.203125 2.171875q0 1.609375 0.234375 2.390625q0.234375 0.765625 0.640625 1.109375q0.21875 0.171875 0.578125 0.171875q0.796875 0 1.515625 -1.25l0 -4.484375zm12.875717 -1.9375l0 6.671875q0 0.96875 0.171875 1.21875q0.1875 0.234375 0.75 0.296875l0 0.328125l-3.484375 0l0 -1.140625q-0.609375 0.734375 -1.21875 1.0625q-0.609375 0.328125 -1.359375 0.328125q-0.71875 0 -1.28125 -0.4375q-0.5625 -0.4375 -0.75 -1.03125q-0.1875 -0.59375 -0.1875 -2.0625l0 -3.390625q0 -0.96875 -0.1875 -1.203125q-0.171875 -0.234375 -0.734375 -0.3125l0 -0.328125l3.46875 0l0 5.8125q0 0.921875 0.078125 1.1875q0.09375 0.265625 0.28125 0.40625q0.1875 0.125 0.4375 0.125q0.328125 0 0.578125 -0.171875q0.375 -0.234375 0.875 -0.953125l0 -4.5625q0 -0.96875 -0.171875 -1.203125q-0.171875 -0.234375 -0.734375 -0.3125l0 -0.328125l3.46875 0zm6.844467 7.265625q-1.5625 1.375 -2.796875 1.375q-0.734375 0 -1.21875 -0.484375q-0.46875 -0.484375 -0.46875 -1.203125q0 -0.96875 0.828125 -1.75q0.84375 -0.78125 3.65625 -2.078125l0 -0.84375q0 -0.96875 -0.109375 -1.21875q-0.09375 -0.25 -0.390625 -0.4375q-0.296875 -0.1875 -0.65625 -0.1875q-0.59375 0 -0.96875 0.265625q-0.25 0.15625 -0.25 0.375q0 0.203125 0.265625 0.484375q0.34375 0.390625 0.34375 0.75q0 0.453125 -0.34375 0.765625q-0.328125 0.3125 -0.859375 0.3125q-0.578125 0 -0.96875 -0.34375q-0.375 -0.359375 -0.375 -0.8125q0 -0.65625 0.515625 -1.25q0.515625 -0.609375 1.4375 -0.921875q0.9375 -0.3125 1.9375 -0.3125q1.21875 0 1.921875 0.515625q0.703125 0.5 0.921875 1.109375q0.125 0.375 0.125 1.75l0 3.3125q0 0.578125 0.046875 0.734375q0.046875 0.15625 0.125 0.234375q0.09375 0.0625 0.21875 0.0625q0.234375 0 0.484375 -0.34375l0.265625 0.21875q-0.453125 0.6875 -0.9375 1.0q-0.484375 0.296875 -1.109375 0.296875q-0.734375 0 -1.140625 -0.34375q-0.40625 -0.34375 -0.5 -1.03125zm0 -0.671875l0 -2.84375q-1.09375 0.640625 -1.640625 1.375q-0.359375 0.5 -0.359375 1.0q0 0.40625 0.3125 0.734375q0.21875 0.25 0.625 0.25q0.46875 0 1.0625 -0.515625zm7.96875 -10.4375l0 10.59375q0 0.90625 0.203125 1.15625q0.203125 0.25 0.8125 0.28125l0 0.328125l-4.59375 0l0 -0.328125q0.5625 -0.015625 0.84375 -0.328125q0.171875 -0.203125 0.171875 -1.109375l0 -8.8125q0 -0.90625 -0.203125 -1.15625q-0.203125 -0.25 -0.8125 -0.28125l0 -0.34375l3.578125 0zm14.175491 5.8125q1.765625 0.40625 2.46875 0.984375q1.015625 0.828125 1.015625 2.15625q0 1.390625 -1.109375 2.296875q-1.375 1.109375 -4.0 1.109375l-6.28125 0l0 -0.34375q0.859375 0 1.15625 -0.15625q0.3125 -0.15625 0.4375 -0.40625q0.125 -0.265625 0.125 -1.265625l0 -8.015625q0 -1.0 -0.125 -1.25q-0.125 -0.265625 -0.4375 -0.421875q-0.3125 -0.15625 -1.15625 -0.15625l0 -0.34375l5.921875 0q2.125 0 3.0 0.390625q0.890625 0.375 1.390625 1.125q0.515625 0.75 0.515625 1.59375q0 0.890625 -0.65625 1.59375q-0.640625 0.703125 -2.265625 1.109375zm-3.3125 -0.25q1.296875 0 1.90625 -0.28125q0.609375 -0.296875 0.9375 -0.828125q0.328125 -0.53125 0.328125 -1.34375q0 -0.828125 -0.328125 -1.34375q-0.3125 -0.53125 -0.921875 -0.796875q-0.59375 -0.28125 -1.921875 -0.265625l0 4.859375zm0 0.71875l0 3.953125l-0.015625 0.453125q0 0.5 0.25 0.75q0.25 0.25 0.75 0.25q0.734375 0 1.34375 -0.328125q0.609375 -0.328125 0.9375 -0.9375q0.328125 -0.609375 0.328125 -1.375q0 -0.859375 -0.40625 -1.546875q-0.390625 -0.6875 -1.09375 -0.953125q-0.703125 -0.28125 -2.09375 -0.265625zm11.427948 -6.28125l0 10.59375q0 0.90625 0.203125 1.15625q0.203125 0.25 0.8125 0.28125l0 0.328125l-4.59375 0l0 -0.328125q0.5625 -0.015625 0.84375 -0.328125q0.171875 -0.203125 0.171875 -1.109375l0 -8.8125q0 -0.90625 -0.203125 -1.15625q-0.203125 -0.25 -0.8125 -0.28125l0 -0.34375l3.578125 0zm5.855179 3.59375q1.109375 0 2.0625 0.578125q0.96875 0.5625 1.453125 1.625q0.5 1.046875 0.5 2.3125q0 1.8125 -0.90625 3.03125q-1.125 1.46875 -3.078125 1.46875q-1.921875 0 -2.96875 -1.34375q-1.03125 -1.34375 -1.03125 -3.125q0 -1.828125 1.0625 -3.1875q1.0625 -1.359375 2.90625 -1.359375zm0.046875 0.640625q-0.46875 0 -0.8125 0.359375q-0.328125 0.34375 -0.4375 1.375q-0.09375 1.03125 -0.09375 2.875q0 0.96875 0.125 1.828125q0.109375 0.640625 0.4375 0.984375q0.328125 0.328125 0.734375 0.328125q0.421875 0 0.6875 -0.21875q0.359375 -0.3125 0.46875 -0.875q0.1875 -0.859375 0.1875 -3.5q0 -1.546875 -0.171875 -2.125q-0.171875 -0.578125 -0.515625 -0.84375q-0.234375 -0.1875 -0.609375 -0.1875zm12.21875 5.921875l0.28125 0.21875q-0.59375 1.140625 -1.5 1.6875q-0.890625 0.546875 -1.90625 0.546875q-1.703125 0 -2.734375 -1.28125q-1.015625 -1.28125 -1.015625 -3.09375q0 -1.734375 0.9375 -3.046875q1.125 -1.59375 3.09375 -1.59375q1.3125 0 2.09375 0.671875q0.78125 0.65625 0.78125 1.46875q0 0.515625 -0.3125 0.828125q-0.3125 0.3125 -0.828125 0.3125q-0.53125 0 -0.890625 -0.34375q-0.34375 -0.359375 -0.4375 -1.28125q-0.046875 -0.5625 -0.265625 -0.796875q-0.203125 -0.234375 -0.484375 -0.234375q-0.4375 0 -0.75 0.46875q-0.46875 0.703125 -0.46875 2.15625q0 1.203125 0.375 2.296875q0.390625 1.09375 1.046875 1.640625q0.5 0.390625 1.1875 0.390625q0.453125 0 0.84375 -0.203125q0.40625 -0.21875 0.953125 -0.8125zm4.796158 -10.15625l0 8.125l1.96875 -1.9375q0.609375 -0.59375 0.765625 -0.84375q0.15625 -0.265625 0.15625 -0.515625q0 -0.25 -0.203125 -0.40625q-0.203125 -0.171875 -0.78125 -0.25l0 -0.328125l3.8125 0l0 0.328125q-0.546875 0.03125 -0.96875 0.265625q-0.40625 0.234375 -1.59375 1.40625l-0.921875 0.90625l2.0 2.9375q1.203125 1.78125 1.4375 2.0q0.3125 0.3125 0.78125 0.34375l0 0.328125l-4.390625 0l0 -0.328125q0.28125 0 0.40625 -0.109375q0.140625 -0.109375 0.140625 -0.234375q0 -0.21875 -0.375 -0.78125l-1.6875 -2.46875l-0.546875 0.546875l0 1.53125q0 0.96875 0.171875 1.21875q0.1875 0.234375 0.75 0.296875l0 0.328125l-4.390625 0l0 -0.328125q0.53125 -0.046875 0.765625 -0.34375q0.15625 -0.203125 0.15625 -1.171875l0 -8.65625q0 -0.96875 -0.1875 -1.203125q-0.171875 -0.234375 -0.734375 -0.3125l0 -0.34375l3.46875 0z" fill-rule="nonzero"/><path fill="#000000" fill-opacity="0.0" d="m92.06627 71.437126l0 0c0 -8.143822 6.6018753 -14.745697 14.745697 -14.745697l109.53223 0c3.910797 0 7.6614227 1.5535583 10.426773 4.3189163c2.7653656 2.7653542 4.318924 6.5159836 4.318924 10.426781l0 58.98104c0 8.143829 -6.601883 14.745697 -14.745697 14.745697l-109.53223 0c-8.143822 0 -14.745697 -6.6018677 -14.745697 -14.745697z" fill-rule="evenodd"/><path stroke="#000000" stroke-width="1.0" stroke-linejoin="round" stroke-linecap="butt" d="m92.06627 71.437126l0 0c0 -8.143822 6.6018753 -14.745697 14.745697 -14.745697l109.53223 0c3.910797 0 7.6614227 1.5535583 10.426773 4.3189163c2.7653656 2.7653542 4.318924 6.5159836 4.318924 10.426781l0 58.98104c0 8.143829 -6.601883 14.745697 -14.745697 14.745697l-109.53223 0c-8.143822 0 -14.745697 -6.6018677 -14.745697 -14.745697z" fill-rule="evenodd"/><path fill="#bf9000" d="m150.51665 93.42577l0.3125 0.0625l-1.0625 3.359375l-9.5625 0l0 -0.34375l0.46875 0q0.78125 0 1.109375 -0.5q0.203125 -0.296875 0.203125 -1.359375l0 -7.96875q0 -1.15625 -0.265625 -1.4375q-0.34375 -0.40625 -1.046875 -0.40625l-0.46875 0l0 -0.34375l5.59375 0l0 0.34375q-0.984375 -0.015625 -1.390625 0.1875q-0.390625 0.1875 -0.53125 0.484375q-0.140625 0.28125 -0.140625 1.390625l0 7.75q0 0.765625 0.140625 1.046875q0.109375 0.1875 0.328125 0.28125q0.234375 0.09375 1.421875 0.09375l0.90625 0q1.421875 0 2.0 -0.203125q0.578125 -0.21875 1.046875 -0.75q0.46875 -0.53125 0.9375 -1.6875zm6.020981 2.21875q-1.28125 1.0 -1.609375 1.15625q-0.5 0.21875 -1.046875 0.21875q-0.875 0 -1.4375 -0.59375q-0.546875 -0.59375 -0.546875 -1.5625q0 -0.609375 0.265625 -1.046875q0.375 -0.625 1.296875 -1.171875q0.921875 -0.546875 3.078125 -1.328125l0 -0.328125q0 -1.25 -0.40625 -1.703125q-0.390625 -0.46875 -1.140625 -0.46875q-0.578125 0 -0.921875 0.3125q-0.34375 0.296875 -0.34375 0.703125l0.015625 0.53125q0 0.421875 -0.21875 0.65625q-0.203125 0.21875 -0.546875 0.21875q-0.34375 0 -0.5625 -0.234375q-0.203125 -0.234375 -0.203125 -0.65625q0 -0.78125 0.796875 -1.4375q0.8125 -0.65625 2.25 -0.65625q1.109375 0 1.828125 0.375q0.53125 0.28125 0.796875 0.890625q0.15625 0.390625 0.15625 1.59375l0 2.84375q0 1.1875 0.046875 1.453125q0.046875 0.265625 0.140625 0.359375q0.109375 0.09375 0.25 0.09375q0.140625 0 0.25 -0.0625q0.203125 -0.125 0.75 -0.671875l0 0.515625q-1.03125 1.359375 -1.953125 1.359375q-0.453125 0 -0.71875 -0.296875q-0.265625 -0.3125 -0.265625 -1.0625zm0 -0.59375l0 -3.171875q-1.375 0.546875 -1.78125 0.765625q-0.71875 0.40625 -1.03125 0.84375q-0.296875 0.4375 -0.296875 0.953125q0 0.65625 0.390625 1.09375q0.390625 0.421875 0.890625 0.421875q0.703125 0 1.828125 -0.90625zm3.0774078 -6.546875l3.890625 0l0 0.34375l-0.1875 0q-0.421875 0 -0.625 0.171875q-0.203125 0.171875 -0.203125 0.4375q0 0.359375 0.296875 0.984375l2.03125 4.203125l1.875 -4.609375q0.15625 -0.359375 0.15625 -0.734375q0 -0.15625 -0.0625 -0.234375q-0.078125 -0.109375 -0.234375 -0.15625q-0.15625 -0.0625 -0.546875 -0.0625l0 -0.34375l2.71875 0l0 0.34375q-0.34375 0.03125 -0.53125 0.140625q-0.171875 0.109375 -0.390625 0.40625q-0.078125 0.125 -0.3125 0.703125l-3.390625 8.328125q-0.5 1.203125 -1.296875 1.828125q-0.796875 0.625 -1.53125 0.625q-0.53125 0 -0.890625 -0.3125q-0.34375 -0.3125 -0.34375 -0.71875q0 -0.375 0.25 -0.609375q0.25 -0.234375 0.6875 -0.234375q0.3125 0 0.828125 0.203125q0.359375 0.140625 0.453125 0.140625q0.28125 0 0.59375 -0.28125q0.328125 -0.28125 0.65625 -1.09375l0.59375 -1.453125l-3.0 -6.296875q-0.140625 -0.28125 -0.4375 -0.703125q-0.234375 -0.3125 -0.375 -0.421875q-0.203125 -0.140625 -0.671875 -0.25l0 -0.34375zm11.203125 3.140625q0 1.859375 0.90625 2.921875q0.90625 1.046875 2.140625 1.046875q0.8125 0 1.421875 -0.4375q0.609375 -0.453125 1.015625 -1.546875l0.28125 0.171875q-0.1875 1.25 -1.109375 2.28125q-0.921875 1.015625 -2.296875 1.015625q-1.515625 0 -2.59375 -1.171875q-1.0625 -1.171875 -1.0625 -3.140625q0 -2.140625 1.09375 -3.328125q1.109375 -1.203125 2.765625 -1.203125q1.40625 0 2.296875 0.921875q0.90625 0.921875 0.90625 2.46875l-5.765625 0zm0 -0.53125l3.859375 0q-0.046875 -0.796875 -0.1875 -1.125q-0.234375 -0.515625 -0.6875 -0.796875q-0.4375 -0.296875 -0.9375 -0.296875q-0.75 0 -1.34375 0.59375q-0.59375 0.578125 -0.703125 1.625zm9.327408 -2.859375l0 1.875q1.046875 -1.875 2.140625 -1.875q0.5 0 0.828125 0.3125q0.328125 0.296875 0.328125 0.703125q0 0.359375 -0.234375 0.609375q-0.234375 0.234375 -0.5625 0.234375q-0.328125 0 -0.71875 -0.3125q-0.390625 -0.3125 -0.578125 -0.3125q-0.171875 0 -0.359375 0.1875q-0.40625 0.359375 -0.84375 1.21875l0 4.0q0 0.703125 0.171875 1.046875q0.109375 0.25 0.40625 0.421875q0.3125 0.15625 0.875 0.15625l0 0.328125l-4.28125 0l0 -0.328125q0.640625 0 0.953125 -0.203125q0.234375 -0.140625 0.3125 -0.46875q0.046875 -0.140625 0.046875 -0.875l0 -3.234375q0 -1.453125 -0.0625 -1.734375q-0.046875 -0.28125 -0.21875 -0.40625q-0.15625 -0.125 -0.390625 -0.125q-0.28125 0 -0.640625 0.140625l-0.078125 -0.328125l2.515625 -1.03125l0.390625 0z" fill-rule="nonzero"/><path fill="#bf9000" d="m107.44996 106.48827l3.359375 0l7.546875 9.265625l0 -7.125q0 -1.125 -0.25 -1.421875q-0.34375 -0.375 -1.0625 -0.375l-0.4375 0l0 -0.34375l4.296875 0l0 0.34375l-0.4375 0q-0.78125 0 -1.109375 0.46875q-0.203125 0.296875 -0.203125 1.328125l0 10.421875l-0.328125 0l-8.140625 -9.953125l0 7.609375q0 1.140625 0.25 1.421875q0.34375 0.375 1.0625 0.375l0.4375 0l0 0.34375l-4.296875 0l0 -0.34375l0.421875 0q0.796875 0 1.125 -0.46875q0.203125 -0.296875 0.203125 -1.328125l0 -8.59375q-0.53125 -0.625 -0.8125 -0.828125q-0.28125 -0.203125 -0.8125 -0.375q-0.265625 -0.078125 -0.8125 -0.078125l0 -0.34375zm18.394821 3.765625q1.890625 0 3.0312424 1.4375q0.984375 1.234375 0.984375 2.828125q0 1.125 -0.546875 2.28125q-0.53125 1.140625 -1.4843674 1.71875q-0.9375 0.578125 -2.09375 0.578125q-1.890625 0 -3.0 -1.5q-0.9375 -1.265625 -0.9375 -2.84375q0 -1.140625 0.5625 -2.265625q0.578125 -1.140625 1.5 -1.6875q0.9375 -0.546875 1.984375 -0.546875zm-0.296875 0.59375q-0.46875 0 -0.96875 0.296875q-0.484375 0.28125 -0.78125 1.0q-0.296875 0.71875 -0.296875 1.84375q0 1.828125 0.71875 3.15625q0.71875 1.3125 1.90625 1.3125q0.890625 0 1.453125 -0.71875q0.5781174 -0.734375 0.5781174 -2.515625q0 -2.21875 -0.9531174 -3.5q-0.640625 -0.875 -1.65625 -0.875zm7.9843674 -0.59375l0 1.875q1.046875 -1.875 2.140625 -1.875q0.5 0 0.828125 0.3125q0.328125 0.296875 0.328125 0.703125q0 0.359375 -0.234375 0.609375q-0.234375 0.234375 -0.5625 0.234375q-0.328125 0 -0.71875 -0.3125q-0.390625 -0.3125 -0.578125 -0.3125q-0.171875 0 -0.359375 0.1875q-0.40625 0.359375 -0.84375 1.21875l0 4.0q0 0.703125 0.171875 1.046875q0.109375 0.25 0.40625 0.421875q0.3125 0.15625 0.875 0.15625l0 0.328125l-4.28125 0l0 -0.328125q0.640625 0 0.953125 -0.203125q0.234375 -0.140625 0.3125 -0.46875q0.046875 -0.140625 0.046875 -0.875l0 -3.234375q0 -1.453125 -0.0625 -1.734375q-0.046875 -0.28125 -0.21875 -0.40625q-0.15625 -0.125 -0.390625 -0.125q-0.28125 0 -0.640625 0.140625l-0.078125 -0.328125l2.515625 -1.03125l0.390625 0zm6.243927 1.78125q0.90625 -0.90625 1.078125 -1.046875q0.40625 -0.34375 0.875 -0.53125q0.484375 -0.203125 0.9375 -0.203125q0.78125 0 1.34375 0.46875q0.578125 0.453125 0.765625 1.3125q0.9375 -1.09375 1.578125 -1.4375q0.65625 -0.34375 1.34375 -0.34375q0.65625 0 1.171875 0.34375q0.515625 0.34375 0.8125 1.125q0.203125 0.515625 0.203125 1.65625l0 3.578125q0 0.78125 0.125 1.078125q0.078125 0.203125 0.328125 0.34375q0.25 0.140625 0.796875 0.140625l0 0.328125l-4.109375 0l0 -0.328125l0.171875 0q0.53125 0 0.84375 -0.203125q0.203125 -0.15625 0.296875 -0.46875q0.03125 -0.15625 0.03125 -0.890625l0 -3.578125q0 -1.03125 -0.234375 -1.453125q-0.359375 -0.578125 -1.140625 -0.578125q-0.484375 0 -0.984375 0.25q-0.484375 0.234375 -1.171875 0.890625l-0.015625 0.09375l0.015625 0.40625l0 3.96875q0 0.859375 0.09375 1.078125q0.09375 0.203125 0.359375 0.34375q0.265625 0.140625 0.90625 0.140625l0 0.328125l-4.21875 0l0 -0.328125q0.6875 0 0.953125 -0.15625q0.265625 -0.171875 0.359375 -0.5q0.046875 -0.15625 0.046875 -0.90625l0 -3.578125q0 -1.03125 -0.296875 -1.46875q-0.40625 -0.59375 -1.125 -0.59375q-0.5 0 -0.96875 0.265625q-0.765625 0.40625 -1.171875 0.90625l0 4.46875q0 0.828125 0.109375 1.078125q0.109375 0.234375 0.328125 0.359375q0.234375 0.125 0.921875 0.125l0 0.328125l-4.125 0l0 -0.328125q0.5625 0 0.796875 -0.125q0.234375 -0.125 0.34375 -0.390625q0.125 -0.265625 0.125 -1.046875l0 -3.1875q0 -1.375 -0.09375 -1.765625q-0.0625 -0.3125 -0.203125 -0.421875q-0.125 -0.109375 -0.359375 -0.109375q-0.265625 0 -0.609375 0.140625l-0.140625 -0.328125l2.515625 -1.03125l0.390625 0l0 1.78125zm16.761429 5.609375q-1.28125 1.0 -1.609375 1.15625q-0.5 0.21875 -1.046875 0.21875q-0.875 0 -1.4375 -0.59375q-0.546875 -0.59375 -0.546875 -1.5625q0 -0.609375 0.265625 -1.046875q0.375 -0.625 1.296875 -1.171875q0.921875 -0.546875 3.078125 -1.328125l0 -0.328125q0 -1.25 -0.40625 -1.703125q-0.390625 -0.46875 -1.140625 -0.46875q-0.578125 0 -0.921875 0.3125q-0.34375 0.296875 -0.34375 0.703125l0.015625 0.53125q0 0.421875 -0.21875 0.65625q-0.203125 0.21875 -0.546875 0.21875q-0.34375 0 -0.5625 -0.234375q-0.203125 -0.234375 -0.203125 -0.65625q0 -0.78125 0.796875 -1.4375q0.8125 -0.65625 2.25 -0.65625q1.109375 0 1.828125 0.375q0.53125 0.28125 0.796875 0.890625q0.15625 0.390625 0.15625 1.59375l0 2.84375q0 1.1875 0.046875 1.453125q0.046875 0.265625 0.140625 0.359375q0.109375 0.09375 0.25 0.09375q0.140625 0 0.25 -0.0625q0.203125 -0.125 0.75 -0.671875l0 0.515625q-1.03125 1.359375 -1.953125 1.359375q-0.453125 0 -0.71875 -0.296875q-0.265625 -0.3125 -0.265625 -1.0625zm0 -0.59375l0 -3.171875q-1.375 0.546875 -1.78125 0.765625q-0.71875 0.40625 -1.03125 0.84375q-0.296875 0.4375 -0.296875 0.953125q0 0.65625 0.390625 1.09375q0.390625 0.421875 0.890625 0.421875q0.703125 0 1.828125 -0.90625zm6.421158 -11.15625l0 11.0625q0 0.78125 0.109375 1.046875q0.125 0.25 0.359375 0.390625q0.234375 0.125 0.875 0.125l0 0.328125l-4.09375 0l0 -0.328125q0.578125 0 0.78125 -0.109375q0.21875 -0.125 0.328125 -0.390625q0.125 -0.28125 0.125 -1.0625l0 -7.578125q0 -1.40625 -0.0625 -1.734375q-0.0625 -0.328125 -0.203125 -0.4375q-0.140625 -0.125 -0.359375 -0.125q-0.234375 0 -0.609375 0.15625l-0.140625 -0.328125l2.484375 -1.015625l0.40625 0zm4.433304 0q0.390625 0 0.65625 0.265625q0.265625 0.265625 0.265625 0.65625q0 0.375 -0.265625 0.65625q-0.265625 0.265625 -0.65625 0.265625q-0.375 0 -0.65625 -0.265625q-0.265625 -0.28125 -0.265625 -0.65625q0 -0.390625 0.265625 -0.65625q0.265625 -0.265625 0.65625 -0.265625zm0.765625 4.359375l0 6.703125q0 0.78125 0.109375 1.046875q0.109375 0.265625 0.328125 0.390625q0.234375 0.125 0.828125 0.125l0 0.328125l-4.0625 0l0 -0.328125q0.609375 0 0.8125 -0.109375q0.21875 -0.125 0.34375 -0.390625q0.125 -0.28125 0.125 -1.0625l0 -3.203125q0 -1.359375 -0.078125 -1.765625q-0.078125 -0.296875 -0.21875 -0.40625q-0.125 -0.109375 -0.359375 -0.109375q-0.265625 0 -0.625 0.140625l-0.125 -0.328125l2.515625 -1.03125l0.40625 0zm9.542679 6.03125l-0.09375 2.5625l-7.359375 0l0 -0.328125l5.53125 -7.375l-2.734375 0q-0.875 0 -1.15625 0.109375q-0.265625 0.109375 -0.4375 0.4375q-0.25 0.453125 -0.28125 1.125l-0.375 0l0.0625 -2.3125l7.0 0l0 0.34375l-5.59375 7.390625l3.03125 0q0.96875 0 1.296875 -0.15625q0.34375 -0.15625 0.5625 -0.5625q0.140625 -0.296875 0.25 -1.234375l0.296875 0zm5.764908 1.359375q-1.28125 1.0 -1.609375 1.15625q-0.5 0.21875 -1.046875 0.21875q-0.875 0 -1.4375 -0.59375q-0.546875 -0.59375 -0.546875 -1.5625q0 -0.609375 0.265625 -1.046875q0.375 -0.625 1.296875 -1.171875q0.921875 -0.546875 3.078125 -1.328125l0 -0.328125q0 -1.25 -0.40625 -1.703125q-0.390625 -0.46875 -1.140625 -0.46875q-0.578125 0 -0.921875 0.3125q-0.34375 0.296875 -0.34375 0.703125l0.015625 0.53125q0 0.421875 -0.21875 0.65625q-0.203125 0.21875 -0.546875 0.21875q-0.34375 0 -0.5625 -0.234375q-0.203125 -0.234375 -0.203125 -0.65625q0 -0.78125 0.796875 -1.4375q0.8125 -0.65625 2.25 -0.65625q1.109375 0 1.828125 0.375q0.53125 0.28125 0.796875 0.890625q0.15625 0.390625 0.15625 1.59375l0 2.84375q0 1.1875 0.046875 1.453125q0.046875 0.265625 0.140625 0.359375q0.109375 0.09375 0.25 0.09375q0.140625 0 0.25 -0.0625q0.203125 -0.125 0.75 -0.671875l0 0.515625q-1.03125 1.359375 -1.953125 1.359375q-0.453125 0 -0.71875 -0.296875q-0.265625 -0.3125 -0.265625 -1.0625zm0 -0.59375l0 -3.171875q-1.375 0.546875 -1.78125 0.765625q-0.71875 0.40625 -1.03125 0.84375q-0.296875 0.4375 -0.296875 0.953125q0 0.65625 0.390625 1.09375q0.390625 0.421875 0.890625 0.421875q0.703125 0 1.828125 -0.90625zm5.968033 -9.296875l0 2.75l1.953125 0l0 0.640625l-1.953125 0l0 5.40625q0 0.8125 0.234375 1.09375q0.234375 0.28125 0.59375 0.28125q0.3125 0 0.59375 -0.1875q0.28125 -0.1875 0.4375 -0.546875l0.34375 0q-0.3125 0.890625 -0.90625 1.34375q-0.578125 0.453125 -1.1875 0.453125q-0.421875 0 -0.828125 -0.234375q-0.390625 -0.234375 -0.59375 -0.65625q-0.1875 -0.4375 -0.1875 -1.34375l0 -5.609375l-1.3125 0l0 -0.296875q0.5 -0.203125 1.015625 -0.6875q0.53125 -0.484375 0.9375 -1.125q0.203125 -0.359375 0.578125 -1.28125l0.28125 0zm4.886429 -1.859375q0.390625 0 0.65625 0.265625q0.265625 0.265625 0.265625 0.65625q0 0.375 -0.265625 0.65625q-0.265625 0.265625 -0.65625 0.265625q-0.375 0 -0.65625 -0.265625q-0.265625 -0.28125 -0.265625 -0.65625q0 -0.390625 0.265625 -0.65625q0.265625 -0.265625 0.65625 -0.265625zm0.765625 4.359375l0 6.703125q0 0.78125 0.109375 1.046875q0.109375 0.265625 0.328125 0.390625q0.234375 0.125 0.828125 0.125l0 0.328125l-4.0625 0l0 -0.328125q0.609375 0 0.8125 -0.109375q0.21875 -0.125 0.34375 -0.390625q0.125 -0.28125 0.125 -1.0625l0 -3.203125q0 -1.359375 -0.078125 -1.765625q-0.078125 -0.296875 -0.21875 -0.40625q-0.125 -0.109375 -0.359375 -0.109375q-0.265625 0 -0.625 0.140625l-0.125 -0.328125l2.515625 -1.03125l0.40625 0zm6.386429 0q1.890625 0 3.03125 1.4375q0.984375 1.234375 0.984375 2.828125q0 1.125 -0.546875 2.28125q-0.53125 1.140625 -1.484375 1.71875q-0.9375 0.578125 -2.09375 0.578125q-1.890625 0 -3.0 -1.5q-0.9375 -1.265625 -0.9375 -2.84375q0 -1.140625 0.5625 -2.265625q0.578125 -1.140625 1.5 -1.6875q0.9375 -0.546875 1.984375 -0.546875zm-0.296875 0.59375q-0.46875 0 -0.96875 0.296875q-0.484375 0.28125 -0.78125 1.0q-0.296875 0.71875 -0.296875 1.84375q0 1.828125 0.71875 3.15625q0.71875 1.3125 1.90625 1.3125q0.890625 0 1.453125 -0.71875q0.578125 -0.734375 0.578125 -2.515625q0 -2.21875 -0.953125 -3.5q-0.640625 -0.875 -1.65625 -0.875zm7.96875 1.171875q1.46875 -1.765625 2.796875 -1.765625q0.6875 0 1.171875 0.34375q0.5 0.34375 0.78125 1.125q0.203125 0.546875 0.203125 1.671875l0 3.5625q0 0.796875 0.125 1.078125q0.109375 0.234375 0.328125 0.359375q0.21875 0.125 0.828125 0.125l0 0.328125l-4.125 0l0 -0.328125l0.171875 0q0.578125 0 0.8125 -0.171875q0.234375 -0.1875 0.328125 -0.53125q0.03125 -0.140625 0.03125 -0.859375l0 -3.40625q0 -1.140625 -0.296875 -1.65625q-0.296875 -0.515625 -1.0 -0.515625q-1.078125 0 -2.15625 1.1875l0 4.390625q0 0.859375 0.09375 1.046875q0.140625 0.265625 0.359375 0.390625q0.21875 0.125 0.90625 0.125l0 0.328125l-4.125 0l0 -0.328125l0.171875 0q0.640625 0 0.859375 -0.3125q0.234375 -0.328125 0.234375 -1.25l0 -3.09375q0 -1.5 -0.078125 -1.828125q-0.0625 -0.328125 -0.203125 -0.4375q-0.140625 -0.125 -0.375 -0.125q-0.265625 0 -0.609375 0.140625l-0.140625 -0.328125l2.515625 -1.03125l0.390625 0l0 1.765625z" fill-rule="nonzero"/><path fill="#000000" fill-opacity="0.0" d="m280.19223 71.262764l0 0c0 -8.143829 6.601898 -14.745705 14.745697 -14.745705l109.53223 0c3.910797 0 7.661438 1.5535622 10.426788 4.3189163c2.7653503 2.765358 4.3189087 6.5159836 4.3189087 10.426788l0 58.98104c0 8.143814 -6.6018677 14.745697 -14.745697 14.745697l-109.53223 0c-8.143799 0 -14.745697 -6.601883 -14.745697 -14.745697z" fill-rule="evenodd"/><path stroke="#000000" stroke-width="1.0" stroke-linejoin="round" stroke-linecap="butt" d="m280.19223 71.262764l0 0c0 -8.143829 6.601898 -14.745705 14.745697 -14.745705l109.53223 0c3.910797 0 7.661438 1.5535622 10.426788 4.3189163c2.7653503 2.765358 4.3189087 6.5159836 4.3189087 10.426788l0 58.98104c0 8.143814 -6.6018677 14.745697 -14.745697 14.745697l-109.53223 0c-8.143799 0 -14.745697 -6.601883 -14.745697 -14.745697z" fill-rule="evenodd"/><path fill="#00ff00" d="m339.5169 107.67328l-3.296875 0l-4.1875 -5.78125q-0.453125 0.03125 -0.75 0.03125q-0.125 0 -0.265625 0q-0.125 -0.015625 -0.28125 -0.03125l0 3.59375q0 1.171875 0.265625 1.453125q0.34375 0.390625 1.03125 0.390625l0.484375 0l0 0.34375l-5.296875 0l0 -0.34375l0.46875 0q0.78125 0 1.125 -0.5q0.1875 -0.28125 0.1875 -1.34375l0 -7.984375q0 -1.15625 -0.25 -1.4375q-0.359375 -0.40625 -1.0625 -0.40625l-0.46875 0l0 -0.34375l4.5 0q1.96875 0 2.90625 0.296875q0.9375 0.28125 1.578125 1.0625q0.65625 0.765625 0.65625 1.828125q0 1.140625 -0.75 1.984375q-0.734375 0.828125 -2.28125 1.171875l2.546875 3.546875q0.875 1.21875 1.5 1.625q0.625 0.390625 1.640625 0.5l0 0.34375zm-8.78125 -6.34375q0.1875 0 0.3125 0q0.125 0 0.203125 0q1.765625 0 2.65625 -0.765625q0.90625 -0.765625 0.90625 -1.953125q0 -1.15625 -0.734375 -1.875q-0.71875 -0.71875 -1.90625 -0.71875q-0.53125 0 -1.4375 0.171875l0 5.140625zm10.599823 1.140625q0 1.859375 0.90625 2.921875q0.90625 1.046875 2.140625 1.046875q0.8125 0 1.421875 -0.4375q0.609375 -0.453125 1.015625 -1.546875l0.28125 0.171875q-0.1875 1.25 -1.109375 2.28125q-0.921875 1.015625 -2.296875 1.015625q-1.515625 0 -2.59375 -1.171875q-1.0625 -1.171875 -1.0625 -3.140625q0 -2.140625 1.09375 -3.328125q1.109375 -1.203125 2.765625 -1.203125q1.40625 0 2.296875 0.921875q0.90625 0.921875 0.90625 2.46875l-5.765625 0zm0 -0.53125l3.859375 0q-0.046875 -0.796875 -0.1875 -1.125q-0.234375 -0.515625 -0.6875 -0.796875q-0.4375 -0.296875 -0.9375 -0.296875q-0.75 0 -1.34375 0.59375q-0.59375 0.578125 -0.703125 1.625zm16.983673 2.3125l0.3125 0.0625l-1.0625 3.359375l-9.5625 0l0 -0.34375l0.46875 0q0.78125 0 1.109375 -0.5q0.203125 -0.296875 0.203125 -1.359375l0 -7.96875q0 -1.15625 -0.265625 -1.4375q-0.34375 -0.40625 -1.046875 -0.40625l-0.46875 0l0 -0.34375l5.59375 0l0 0.34375q-0.984375 -0.015625 -1.390625 0.1875q-0.390625 0.1875 -0.53125 0.484375q-0.140625 0.28125 -0.140625 1.390625l0 7.75q0 0.765625 0.140625 1.046875q0.109375 0.1875 0.328125 0.28125q0.234375 0.09375 1.421875 0.09375l0.90625 0q1.421875 0 2.0 -0.203125q0.578125 -0.21875 1.046875 -0.75q0.46875 -0.53125 0.9375 -1.6875zm9.614716 -8.59375l0 -0.34375l4.359375 0l0 0.34375l-0.453125 0q-0.734375 0 -1.125 0.609375q-0.1875 0.28125 -0.1875 1.3125l0 5.015625q0 1.859375 -0.375 2.890625q-0.359375 1.015625 -1.453125 1.75q-1.078125 0.734375 -2.9375 0.734375q-2.015625 0 -3.0625 -0.703125q-1.046875 -0.703125 -1.484375 -1.890625q-0.296875 -0.8125 -0.296875 -3.046875l0 -4.828125q0 -1.140625 -0.3125 -1.484375q-0.3125 -0.359375 -1.015625 -0.359375l-0.46875 0l0 -0.34375l5.34375 0l0 0.34375l-0.46875 0q-0.765625 0 -1.09375 0.484375q-0.234375 0.328125 -0.234375 1.359375l0 5.390625q0 0.71875 0.125 1.65625q0.140625 0.921875 0.484375 1.4375q0.34375 0.515625 1.0 0.859375q0.65625 0.34375 1.59375 0.34375q1.21875 0 2.171875 -0.53125q0.953125 -0.53125 1.296875 -1.359375q0.359375 -0.828125 0.359375 -2.796875l0 -5.0q0 -1.15625 -0.25 -1.4375q-0.359375 -0.40625 -1.0625 -0.40625l-0.453125 0z" fill-rule="nonzero"/><path fill="#000000" fill-opacity="0.0" d="m476.9768 71.436005l0 0c0 -8.143829 6.6018677 -14.745705 14.745697 -14.745705l100.87082 0c3.9107666 0 7.661377 1.5535583 10.426758 4.3189163c2.7653809 2.7653542 4.3189087 6.5159836 4.3189087 10.426788l0 58.981033c0 8.143829 -6.6018677 14.745697 -14.7456665 14.745697l-100.87082 0l0 0c-8.143829 0 -14.745697 -6.6018677 -14.745697 -14.745697z" fill-rule="evenodd"/><path stroke="#000000" stroke-width="1.0" stroke-linejoin="round" stroke-linecap="butt" d="m476.9768 71.436005l0 0c0 -8.143829 6.6018677 -14.745705 14.745697 -14.745705l100.87082 0c3.9107666 0 7.661377 1.5535583 10.426758 4.3189163c2.7653809 2.7653542 4.3189087 6.5159836 4.3189087 10.426788l0 58.981033c0 8.143829 -6.6018677 14.745697 -14.7456665 14.745697l-100.87082 0l0 0c-8.143829 0 -14.745697 -6.6018677 -14.745697 -14.745697z" fill-rule="evenodd"/><path fill="#999999" d="m521.7778 95.205894l0.28125 4.203125l-0.28125 0q-0.5625 -1.890625 -1.609375 -2.71875q-1.046875 -0.828125 -2.515625 -0.828125q-1.234375 0 -2.234375 0.625q-0.984375 0.625 -1.5625 2.0q-0.5625 1.359375 -0.5625 3.390625q0 1.671875 0.53125 2.90625q0.546875 1.234375 1.625 1.890625q1.078125 0.65625 2.46875 0.65625q1.203125 0 2.109375 -0.515625q0.921875 -0.515625 2.03125 -2.046875l0.28125 0.1875q-0.921875 1.640625 -2.171875 2.40625q-1.234375 0.765625 -2.9375 0.765625q-3.078125 0 -4.75 -2.28125q-1.265625 -1.6875 -1.265625 -3.984375q0 -1.84375 0.828125 -3.390625q0.828125 -1.5625 2.28125 -2.40625q1.453125 -0.859375 3.171875 -0.859375q1.34375 0 2.640625 0.65625q0.390625 0.203125 0.546875 0.203125q0.25 0 0.4375 -0.171875q0.234375 -0.25 0.328125 -0.6875l0.328125 0zm5.8810425 4.046875q1.890625 0 3.03125 1.4375q0.984375 1.234375 0.984375 2.828125q0 1.125 -0.546875 2.28125q-0.53125 1.140625 -1.484375 1.71875q-0.9375 0.578125 -2.09375 0.578125q-1.890625 0 -3.0 -1.5q-0.9375 -1.265625 -0.9375 -2.84375q0 -1.140625 0.5625 -2.265625q0.578125 -1.140625 1.5 -1.6875q0.9375 -0.546875 1.984375 -0.546875zm-0.296875 0.59375q-0.46875 0 -0.96875 0.296875q-0.484375 0.28125 -0.78125 1.0q-0.296875 0.71875 -0.296875 1.84375q0 1.828125 0.71875 3.15625q0.71875 1.3125 1.90625 1.3125q0.890625 0 1.453125 -0.71875q0.578125 -0.734375 0.578125 -2.515625q0 -2.21875 -0.953125 -3.5q-0.640625 -0.875 -1.65625 -0.875zm7.96875 1.171875q1.46875 -1.765625 2.796875 -1.765625q0.6875 0 1.171875 0.34375q0.5 0.34375 0.78125 1.125q0.203125 0.546875 0.203125 1.671875l0 3.5625q0 0.796875 0.125 1.078125q0.109375 0.234375 0.328125 0.359375q0.21875 0.125 0.828125 0.125l0 0.328125l-4.125 0l0 -0.328125l0.171875 0q0.578125 0 0.8125 -0.171875q0.234375 -0.1875 0.328125 -0.53125q0.03125 -0.140625 0.03125 -0.859375l0 -3.40625q0 -1.140625 -0.296875 -1.65625q-0.296875 -0.515625 -1.0 -0.515625q-1.078125 0 -2.15625 1.1875l0 4.390625q0 0.859375 0.09375 1.046875q0.140625 0.265625 0.359375 0.390625q0.21875 0.125 0.90625 0.125l0 0.328125l-4.125 0l0 -0.328125l0.171875 0q0.640625 0 0.859375 -0.3125q0.234375 -0.328125 0.234375 -1.25l0 -3.09375q0 -1.5 -0.078125 -1.828125q-0.0625 -0.328125 -0.203125 -0.4375q-0.140625 -0.125 -0.375 -0.125q-0.265625 0 -0.609375 0.140625l-0.140625 -0.328125l2.515625 -1.03125l0.390625 0l0 1.765625zm6.46875 -1.515625l3.921875 0l0 0.34375l-0.25 0q-0.359375 0 -0.546875 0.171875q-0.1875 0.171875 -0.1875 0.453125q0 0.328125 0.1875 0.765625l1.953125 4.609375l1.9375 -4.78125q0.21875 -0.515625 0.21875 -0.78125q0 -0.125 -0.078125 -0.203125q-0.09375 -0.140625 -0.25 -0.1875q-0.15625 -0.046875 -0.625 -0.046875l0 -0.34375l2.71875 0l0 0.34375q-0.46875 0.03125 -0.65625 0.1875q-0.3125 0.265625 -0.578125 0.90625l-2.953125 7.15625l-0.375 0l-2.984375 -7.03125q-0.203125 -0.5 -0.390625 -0.703125q-0.171875 -0.21875 -0.453125 -0.375q-0.15625 -0.078125 -0.609375 -0.140625l0 -0.34375zm17.71875 5.96875l-0.859375 2.375l-7.28125 0l0 -0.34375q3.203125 -2.921875 4.515625 -4.78125q1.3125 -1.859375 1.3125 -3.40625q0 -1.171875 -0.71875 -1.921875q-0.71875 -0.765625 -1.71875 -0.765625q-0.90625 0 -1.640625 0.546875q-0.71875 0.53125 -1.0625 1.546875l-0.34375 0q0.234375 -1.671875 1.171875 -2.578125q0.953125 -0.90625 2.359375 -0.90625q1.5 0 2.5 0.96875q1.015625 0.96875 1.015625 2.28125q0 0.9375 -0.4375 1.875q-0.671875 1.46875 -2.1875 3.125q-2.265625 2.46875 -2.828125 2.984375l3.21875 0q0.984375 0 1.375 -0.0625q0.40625 -0.078125 0.71875 -0.296875q0.328125 -0.234375 0.5625 -0.640625l0.328125 0zm1.09375 2.375l0 -0.34375l0.46875 0q0.78125 0 1.109375 -0.5q0.203125 -0.296875 0.203125 -1.34375l0 -7.984375q0 -1.15625 -0.25 -1.4375q-0.359375 -0.40625 -1.0625 -0.40625l-0.46875 0l0 -0.34375l5.03125 0q2.765625 0 4.203125 0.640625q1.453125 0.625 2.328125 2.09375q0.890625 1.46875 0.890625 3.390625q0 2.578125 -1.5625 4.296875q-1.765625 1.9375 -5.359375 1.9375l-5.53125 0zm3.53125 -0.890625q1.15625 0.25 1.9375 0.25q2.109375 0 3.5 -1.484375q1.40625 -1.484375 1.40625 -4.03125q0 -2.546875 -1.40625 -4.015625q-1.390625 -1.484375 -3.5625 -1.484375q-0.828125 0 -1.875 0.265625l0 10.5z" fill-rule="nonzero"/><path fill="#000000" fill-opacity="0.0" d="m231.08989 100.92765l49.10237 -0.1889801" fill-rule="evenodd"/><path stroke="#000000" stroke-width="3.0" stroke-linejoin="round" stroke-linecap="butt" d="m231.08989 100.92765l38.821182 -0.14941406" fill-rule="evenodd"/><path fill="#000000" stroke="#000000" stroke-width="3.0" stroke-linecap="butt" d="m269.91107 100.77824l-3.3607483 3.3867111l9.256256 -3.409401l-9.282227 -3.3380508z" fill-rule="evenodd"/><path fill="#000000" fill-opacity="0.0" d="m419.21585 100.75328l57.763794 0.1889801" fill-rule="evenodd"/><path stroke="#000000" stroke-width="3.0" stroke-linejoin="round" stroke-linecap="butt" d="m419.21588 100.75328l47.482574 0.15533447" fill-rule="evenodd"/><path fill="#000000" stroke="#000000" stroke-width="3.0" stroke-linecap="butt" d="m466.69846 100.90862l-3.3847656 3.3626938l9.280273 -3.3434067l-9.258209 -3.4040604z" fill-rule="evenodd"/><path fill="#000000" fill-opacity="0.0" d="m92.06627 100.92765l-81.732285 -0.47244263" fill-rule="evenodd"/><path stroke="#000000" stroke-width="3.0" stroke-linejoin="round" stroke-linecap="butt" d="m81.78518 100.868225l-71.451195 -0.41301727" fill-rule="evenodd"/><path fill="#000000" stroke="#000000" stroke-width="3.0" stroke-linecap="butt" d="m81.78517 100.86822l-3.3931885 3.3541946l9.288643 -3.3201141l-9.249641 -3.4272766z" fill-rule="evenodd"/><path fill="#000000" fill-opacity="0.0" d="m665.1009 100.72101l0 0c0 -10.654312 8.637024 -19.291344 19.29132 -19.291344l0 0c5.116394 0 10.023193 2.0324783 13.641052 5.6503067c3.6177979 3.6178284 5.6502686 8.524651 5.6502686 13.641037l0 0c0 10.654312 -8.637024 19.291336 -19.29132 19.291336l0 0c-10.654297 0 -19.29132 -8.637024 -19.29132 -19.291336z" fill-rule="evenodd"/><path fill="#000000" fill-opacity="0.0" d="m684.3922 81.429665l0 38.58268m-19.29132 -19.291336l38.58264 0" fill-rule="evenodd"/><path fill="#000000" fill-opacity="0.0" d="m665.1009 100.72101l0 0c0 -10.654312 8.637024 -19.291344 19.29132 -19.291344l0 0c5.116394 0 10.023193 2.0324783 13.641052 5.6503067c3.6177979 3.6178284 5.6502686 8.524651 5.6502686 13.641037l0 0c0 10.654312 -8.637024 19.291336 -19.29132 19.291336l0 0c-10.654297 0 -19.29132 -8.637024 -19.29132 -19.291336z" fill-rule="evenodd"/><path stroke="#ff0000" stroke-width="1.0" stroke-linejoin="round" stroke-linecap="butt" d="m684.3922 81.429665l0 38.58268m-19.29132 -19.291336l38.58264 0" fill-rule="evenodd"/><path stroke="#ff0000" stroke-width="1.0" stroke-linejoin="round" stroke-linecap="butt" d="m665.1009 100.72101l0 0c0 -10.654312 8.637024 -19.291344 19.29132 -19.291344l0 0c5.116394 0 10.023193 2.0324783 13.641052 5.6503067c3.6177979 3.6178284 5.6502686 8.524651 5.6502686 13.641037l0 0c0 10.654312 -8.637024 19.291336 -19.29132 19.291336l0 0c-10.654297 0 -19.29132 -8.637024 -19.29132 -19.291336z" fill-rule="evenodd"/><path fill="#000000" fill-opacity="0.0" d="m607.339 100.92652l57.763794 -0.22047424" fill-rule="evenodd"/><path stroke="#000000" stroke-width="3.0" stroke-linejoin="round" stroke-linecap="butt" d="m607.339 100.92652l47.482605 -0.18123627" fill-rule="evenodd"/><path fill="#000000" stroke="#000000" stroke-width="3.0" stroke-linecap="butt" d="m654.8216 100.745285l-3.3608398 3.3866043l9.256348 -3.4091034l-9.2821045 -3.3383484z" fill-rule="evenodd"/><path fill="#000000" fill-opacity="0.0" d="m684.3922 120.012344l0 48.019165l-639.3322 0l0 -66.63334l-0.0063934326 0" fill-rule="evenodd"/><path stroke="#000000" stroke-width="3.0" stroke-linejoin="round" stroke-linecap="butt" d="m684.3922 130.29361l0 37.7379l-639.3322 0l0 -66.63334l-0.0063934326 0" fill-rule="evenodd"/><path fill="#000000" stroke="#000000" stroke-width="3.0" stroke-linecap="butt" d="m684.3922 130.29361l3.3737793 3.3737488l-3.3737793 -9.26931l-3.3737183 9.26931z" fill-rule="evenodd"/><path fill="#000000" fill-opacity="0.0" d="m703.68353 100.72101l36.06299 0.06298828" fill-rule="evenodd"/><path stroke="#000000" stroke-width="3.0" stroke-linejoin="round" stroke-linecap="butt" d="m703.68353 100.72101l25.7818 0.045028687" fill-rule="evenodd"/><path fill="#000000" stroke="#000000" stroke-width="3.0" stroke-linecap="butt" d="m729.46533 100.76604l-3.3796387 3.3678513l9.2751465 -3.3575516l-9.263367 -3.3899384z" fill-rule="evenodd"/></g></svg>